<svg width="10" height="12" viewBox="0 0 10 12" fill="none" xmlns="http://www.w3.org/2000/svg">
<path d="M0 0.75C0 0.551088 0.0790177 0.360322 0.21967 0.21967C0.360322 0.0790176 0.551088 0 0.75 0L4.25 0C4.44891 0 4.63968 0.0790176 4.78033 0.21967C4.92098 0.360322 5 0.551088 5 0.75V4H0.75C0.551088 4 0.360322 3.92098 0.21967 3.78033C0.0790177 3.63968 0 3.44891 0 3.25V0.75ZM5 4H9.25C9.44891 4 9.63968 4.07902 9.78033 4.21967C9.92098 4.36032 10 4.55109 10 4.75V7.25C10 7.44891 9.92098 7.63968 9.78033 7.78033C9.63968 7.92098 9.44891 8 9.25 8H5V4ZM0 8.75C0 8.55109 0.0790177 8.36032 0.21967 8.21967C0.360322 8.07902 0.551088 8 0.75 8H5V11.25C5 11.4489 4.92098 11.6397 4.78033 11.7803C4.63968 11.921 4.44891 12 4.25 12H0.75C0.551088 12 0.360322 11.921 0.21967 11.7803C0.0790177 11.6397 0 11.4489 0 11.25V8.75Z" fill="black"/>
</svg>
