<svg width="18" height="16" viewBox="0 0 18 16" fill="none" xmlns="http://www.w3.org/2000/svg">
<path d="M9.52009 3.7666C9.2702 3.7666 9.03055 3.86587 8.85385 4.04257C8.67715 4.21927 8.57788 4.45892 8.57788 4.70881C8.57788 4.9587 8.67715 5.19836 8.85385 5.37506C9.03055 5.55176 9.2702 5.65102 9.52009 5.65102H13.2889C13.5388 5.65102 13.7785 5.55176 13.9552 5.37506C14.1319 5.19836 14.2311 4.9587 14.2311 4.70881C14.2311 4.45892 14.1319 4.21927 13.9552 4.04257C13.7785 3.86587 13.5388 3.7666 13.2889 3.7666H9.52009ZM9.52009 12.2465C9.2702 12.2465 9.03055 12.3458 8.85385 12.5225C8.67715 12.6992 8.57788 12.9388 8.57788 13.1887C8.57788 13.4386 8.67715 13.6783 8.85385 13.855C9.03055 14.0317 9.2702 14.1309 9.52009 14.1309H13.2889C13.5388 14.1309 13.7785 14.0317 13.9552 13.855C14.1319 13.6783 14.2311 13.4386 14.2311 13.1887C14.2311 12.9388 14.1319 12.6992 13.9552 12.5225C13.7785 12.3458 13.5388 12.2465 13.2889 12.2465H9.52009Z" fill="black"/>
<path d="M9.52009 0.94043C9.2702 0.94043 9.03055 1.0397 8.85385 1.2164C8.67715 1.3931 8.57788 1.63275 8.57788 1.88264C8.57788 2.13253 8.67715 2.37219 8.85385 2.54888C9.03055 2.72558 9.2702 2.82485 9.52009 2.82485H17.0578C17.3077 2.82485 17.5473 2.72558 17.724 2.54888C17.9007 2.37219 18 2.13253 18 1.88264C18 1.63275 17.9007 1.3931 17.724 1.2164C17.5473 1.0397 17.3077 0.94043 17.0578 0.94043H9.52009ZM9.52009 9.42033C9.2702 9.42033 9.03055 9.5196 8.85385 9.6963C8.67715 9.873 8.57788 10.1127 8.57788 10.3625C8.57788 10.6124 8.67715 10.8521 8.85385 11.0288C9.03055 11.2055 9.2702 11.3048 9.52009 11.3048H17.0578C17.3077 11.3048 17.5473 11.2055 17.724 11.0288C17.9007 10.8521 18 10.6124 18 10.3625C18 10.1127 17.9007 9.873 17.724 9.6963C17.5473 9.5196 17.3077 9.42033 17.0578 9.42033H9.52009Z" fill="black"/>
<path d="M0.942211 0C0.692321 0 0.452666 0.0992686 0.275967 0.275967C0.0992683 0.452666 0 0.692321 0 0.942211V5.65327C0 5.90316 0.0992683 6.14281 0.275967 6.31951C0.452666 6.49621 0.692321 6.59548 0.942211 6.59548H5.65327C5.90316 6.59548 6.14281 6.49621 6.31951 6.31951C6.49621 6.14281 6.59548 5.90316 6.59548 5.65327V0.942211C6.59548 0.692321 6.49621 0.452666 6.31951 0.275967C6.14281 0.0992686 5.90316 0 5.65327 0H0.942211ZM0.942211 8.47613C0.692321 8.47613 0.452666 8.5754 0.275967 8.7521C0.0992683 8.9288 0 9.16845 0 9.41834V14.1294C0 14.3793 0.0992683 14.6189 0.275967 14.7956C0.452666 14.9723 0.692321 15.0716 0.942211 15.0716H5.65327C5.90316 15.0716 6.14281 14.9723 6.31951 14.7956C6.49621 14.6189 6.59548 14.3793 6.59548 14.1294V9.41834C6.59548 9.16845 6.49621 8.9288 6.31951 8.7521C6.14281 8.5754 5.90316 8.47613 5.65327 8.47613H0.942211Z" fill="black"/>
</svg>
