<svg width="18" height="14" viewBox="0 0 18 14" fill="none" xmlns="http://www.w3.org/2000/svg">
<path d="M9.81818 6.54545H15.5455V7.77273H9.81818M9.81818 4.5H15.5455V5.72727H9.81818M9.81818 8.59091H15.5455V9.81818H9.81818M16.3636 0H1.63636C1.20237 0 0.786158 0.172402 0.47928 0.47928C0.172402 0.786157 0 1.20237 0 1.63636V12.2727C0 12.7067 0.172402 13.1229 0.47928 13.4298C0.786158 13.7367 1.20237 13.9091 1.63636 13.9091H16.3636C16.7976 13.9091 17.2138 13.7367 17.5207 13.4298C17.8276 13.1229 18 12.7067 18 12.2727V1.63636C18 1.20237 17.8276 0.786157 17.5207 0.47928C17.2138 0.172402 16.7976 0 16.3636 0ZM16.3636 12.2727H9V1.63636H16.3636" fill="black"/>
</svg>
