<svg width="11" height="12" viewBox="0 0 11 12" fill="none" xmlns="http://www.w3.org/2000/svg">
<path d="M5.57795 0.122888C5.48909 0.0437347 5.37423 0 5.25522 0C5.13622 0 5.02136 0.0437347 4.93249 0.122888C4.47029 0.532386 4.10172 1.03663 3.85183 1.60131C3.60194 2.166 3.4766 2.77788 3.48434 3.39534C3.485 3.45998 3.5023 3.52335 3.53459 3.57936C3.56687 3.63536 3.61304 3.6821 3.66865 3.71506C4.15609 4.00341 4.59673 4.3644 4.97537 4.78556C5.01065 4.82484 5.0538 4.85626 5.10201 4.87776C5.15023 4.89926 5.20243 4.91038 5.25522 4.91038C5.30802 4.91038 5.36022 4.89926 5.40843 4.87776C5.45665 4.85626 5.4998 4.82484 5.53507 4.78556C5.9136 4.365 6.35398 4.00453 6.84104 3.71656C6.89679 3.68369 6.94311 3.637 6.97553 3.58099C7.00795 3.52498 7.02537 3.46155 7.02611 3.39684C7.03396 2.77926 6.90867 2.16723 6.65878 1.60241C6.40888 1.03758 6.04025 0.533222 5.57795 0.123641V0.122888ZM0.002 7.64275C-0.0038823 7.57726 0.00324194 7.51126 0.0229628 7.44854C0.0426836 7.38581 0.0746119 7.32761 0.116911 7.27727C0.15921 7.22693 0.211045 7.18545 0.269433 7.15522C0.327822 7.12498 0.391612 7.10659 0.457134 7.10111C1.45875 7.01782 2.46117 7.25187 3.32234 7.77008C4.18351 8.2883 4.85975 9.06439 5.25522 9.98838C5.6507 9.06439 6.32694 8.2883 7.18811 7.77008C8.04928 7.25187 9.0517 7.01782 10.0533 7.10111C10.3279 7.12367 10.534 7.36591 10.5084 7.64275C10.4003 8.83326 9.851 9.94032 8.96838 10.7465C8.08575 11.5527 6.9336 11.9998 5.73819 12H5.38763C5.34288 11.9999 5.29835 11.9939 5.25522 11.9819C5.2121 11.9939 5.16756 11.9999 5.12282 12H4.77225C3.57685 11.9998 2.42469 11.5527 1.54207 10.7465C0.659444 9.94032 0.110127 8.83326 0.002 7.64275ZM5.25522 6.60309C4.85975 5.6791 4.18351 4.903 3.32234 4.38479C2.46117 3.86657 1.45875 3.63253 0.457134 3.71581C0.391612 3.7213 0.327822 3.73969 0.269433 3.76992C0.211045 3.80015 0.15921 3.84163 0.116911 3.89197C0.0746119 3.94231 0.0426836 4.00052 0.0229628 4.06324C0.00324194 4.12597 -0.0038823 4.19197 0.002 4.25746C0.0613045 4.9175 0.257291 5.55798 0.5775 6.13818C0.609742 6.19648 0.656891 6.24517 0.714124 6.27927C0.771357 6.31337 0.836621 6.33166 0.90324 6.33227C1.66412 6.33869 2.4155 6.50194 3.11045 6.81181C3.8054 7.12168 4.42899 7.57153 4.94227 8.13324C4.98157 8.17614 5.03029 8.20934 5.08459 8.23023C5.1389 8.25111 5.1973 8.25912 5.25522 8.25361C5.31314 8.25912 5.37155 8.25111 5.42585 8.23023C5.48015 8.20934 5.52887 8.17614 5.56817 8.13324C6.08139 7.57165 6.70487 7.12189 7.39968 6.81202C8.09448 6.50215 8.84571 6.33884 9.60645 6.33227C9.67328 6.33172 9.73875 6.31338 9.79613 6.27914C9.85351 6.24489 9.90074 6.19598 9.93295 6.13742C10.2451 5.57321 10.4468 4.93677 10.5084 4.25746C10.5143 4.19197 10.5072 4.12597 10.4875 4.06324C10.4678 4.00052 10.4358 3.94231 10.3935 3.89197C10.3512 3.84163 10.2994 3.80015 10.241 3.76992C10.1826 3.73969 10.1188 3.7213 10.0533 3.71581C9.0517 3.63253 8.04928 3.86657 7.18811 4.38479C6.32694 4.903 5.6507 5.6791 5.25522 6.60309Z" fill="#FFA800"/>
</svg>
