<svg width="24" height="21" viewBox="0 0 24 21" fill="none" xmlns="http://www.w3.org/2000/svg">
<path d="M10.5 21V18.6667H19.8333V10.3833C19.8333 9.25556 19.6194 8.19583 19.1917 7.20417C18.7639 6.2125 18.1806 5.34722 17.4417 4.60833C16.7028 3.86944 15.8375 3.28611 14.8458 2.85833C13.8542 2.43056 12.7944 2.21667 11.6667 2.21667C10.5389 2.21667 9.47917 2.43056 8.4875 2.85833C7.49583 3.28611 6.63056 3.86944 5.89167 4.60833C5.15278 5.34722 4.56944 6.2125 4.14167 7.20417C3.71389 8.19583 3.5 9.25556 3.5 10.3833V17.2375H0V10.7625H1.16667L1.25417 9.275C1.42917 7.85556 1.83283 6.57222 2.46517 5.425C3.09672 4.27778 3.88422 3.30556 4.82767 2.50833C5.77033 1.71111 6.83006 1.09356 8.00683 0.655667C9.18283 0.218556 10.4028 0 11.6667 0C12.95 0 14.1801 0.218556 15.3568 0.655667C16.5328 1.09356 17.5875 1.71578 18.5208 2.52233C19.4542 3.32967 20.237 4.30189 20.8693 5.439C21.5009 6.57689 21.9042 7.84583 22.0792 9.24583L22.1667 10.7625H23.3333V17.2375H22.1667V21H10.5ZM8.16667 12.8333C7.83611 12.8333 7.55922 12.7213 7.336 12.4973C7.112 12.2741 7 11.9972 7 11.6667C7 11.3361 7.112 11.0588 7.336 10.8348C7.55922 10.6116 7.83611 10.5 8.16667 10.5C8.49722 10.5 8.7745 10.6116 8.9985 10.8348C9.22172 11.0588 9.33333 11.3361 9.33333 11.6667C9.33333 11.9972 9.22172 12.2741 8.9985 12.4973C8.7745 12.7213 8.49722 12.8333 8.16667 12.8333ZM15.1667 12.8333C14.8361 12.8333 14.5592 12.7213 14.336 12.4973C14.112 12.2741 14 11.9972 14 11.6667C14 11.3361 14.112 11.0588 14.336 10.8348C14.5592 10.6116 14.8361 10.5 15.1667 10.5C15.4972 10.5 15.7745 10.6116 15.9985 10.8348C16.2217 11.0588 16.3333 11.3361 16.3333 11.6667C16.3333 11.9972 16.2217 12.2741 15.9985 12.4973C15.7745 12.7213 15.4972 12.8333 15.1667 12.8333ZM4.69583 11.025C4.61806 9.87778 4.77867 8.8375 5.17767 7.90417C5.57589 6.97083 6.11022 6.17828 6.78067 5.5265C7.45189 4.8755 8.225 4.375 9.1 4.025C9.975 3.675 10.85 3.5 11.725 3.5C13.4944 3.5 15.0259 4.05922 16.3193 5.17767C17.612 6.29533 18.3944 7.69028 18.6667 9.3625C16.8389 9.34305 15.1861 8.85189 13.7083 7.889C12.2306 6.92689 11.1125 5.67778 10.3542 4.14167C10.0431 5.71667 9.387 7.11161 8.386 8.3265C7.38422 9.54217 6.15417 10.4417 4.69583 11.025Z" fill="black"/>
</svg>
