<svg width="18" height="18" viewBox="0 0 18 18" fill="none" xmlns="http://www.w3.org/2000/svg">
<mask id="mask0_134_1667" style="mask-type:luminance" maskUnits="userSpaceOnUse" x="0" y="0" width="18" height="18">
<path d="M15.5571 16.7142V7.45703H2.44285V16.7142H15.5571Z" fill="white"/>
<path fill-rule="evenodd" clip-rule="evenodd" d="M1.15714 7.45759C1.15714 6.74751 1.73277 6.17188 2.44285 6.17188H15.5571C16.2672 6.17188 16.8428 6.74751 16.8428 7.45759V16.7147C16.8428 17.4248 16.2672 18.0004 15.5571 18.0004H2.44285C1.73277 18.0004 1.15714 17.4248 1.15714 16.7147V7.45759ZM3.72856 8.7433V15.429H14.2714V8.7433H3.72856Z" fill="white"/>
<path fill-rule="evenodd" clip-rule="evenodd" d="M9 6.17188C9.71008 6.17188 10.2857 6.74751 10.2857 7.45759V16.7147C10.2857 17.4248 9.71008 18.0004 9 18.0004C8.28992 18.0004 7.71429 17.4248 7.71429 16.7147V7.45759C7.71429 6.74751 8.28992 6.17188 9 6.17188Z" fill="black"/>
<path fill-rule="evenodd" clip-rule="evenodd" d="M1.15714 16.7144C1.15714 16.0043 1.73277 15.4287 2.44285 15.4287H15.5571C16.2672 15.4287 16.8428 16.0043 16.8428 16.7144C16.8428 17.4245 16.2672 18.0001 15.5571 18.0001H2.44285C1.73277 18.0001 1.15714 17.4245 1.15714 16.7144Z" fill="white"/>
<path d="M1.28571 4.37109H16.7143V7.45681H1.28571V4.37109Z" fill="white"/>
<path fill-rule="evenodd" clip-rule="evenodd" d="M0 4.37165C0 3.66157 0.575634 3.08594 1.28571 3.08594H16.7143C17.4244 3.08594 18 3.66157 18 4.37165V7.45737C18 8.16745 17.4244 8.74308 16.7143 8.74308H1.28571C0.575634 8.74308 0 8.16745 0 7.45737V4.37165ZM2.57143 5.65737V6.17165H15.4286V5.65737H2.57143Z" fill="white"/>
<path fill-rule="evenodd" clip-rule="evenodd" d="M5.00516 0.376577C5.50726 -0.125526 6.32133 -0.125526 6.82343 0.376577L9.00001 2.55315L11.1766 0.376577C11.6787 -0.125526 12.4928 -0.125526 12.9949 0.376577C13.497 0.87868 13.497 1.69275 12.9949 2.19485L9.90915 5.28057C9.40704 5.78267 8.59297 5.78267 8.09087 5.28057L5.00516 2.19485C4.50305 1.69275 4.50305 0.87868 5.00516 0.376577Z" fill="white"/>
</mask>
<g mask="url(#mask0_134_1667)">
<path d="M-0.257139 -0.256836H18.2571V18.2575H-0.257139V-0.256836Z" fill="black"/>
</g>
</svg>
