<svg width="15" height="18" viewBox="0 0 15 18" fill="none" xmlns="http://www.w3.org/2000/svg">
<path d="M6.40079 8.03477C6.49483 8.33988 6.54545 8.66403 6.54545 9C6.54545 9.33703 6.49451 9.66215 6.3999 9.9681L9.53721 12.0747C10.076 11.6845 10.7384 11.4545 11.4545 11.4545C13.262 11.4545 14.7273 12.9198 14.7273 14.7273C14.7273 16.5347 13.262 18 11.4545 18C9.64707 18 8.18182 16.5347 8.18182 14.7273C8.18182 14.232 8.29182 13.7625 8.48873 13.3417L5.53902 11.3611C4.95094 11.9257 4.15236 12.2727 3.27273 12.2727C1.46525 12.2727 0 10.8075 0 9C0 7.19252 1.46525 5.72727 3.27273 5.72727C4.1535 5.72727 4.95301 6.07521 5.54131 6.64113L8.49591 4.67352C8.2945 4.24887 8.18182 3.77396 8.18182 3.27273C8.18182 1.46525 9.64707 0 11.4545 0C13.262 0 14.7273 1.46525 14.7273 3.27273C14.7273 5.0802 13.262 6.54545 11.4545 6.54545C10.7451 6.54545 10.0883 6.31969 9.55221 5.93609L6.40079 8.03477ZM11.4545 4.90909C12.3583 4.90909 13.0909 4.17647 13.0909 3.27273C13.0909 2.36899 12.3583 1.63636 11.4545 1.63636C10.5508 1.63636 9.81818 2.36899 9.81818 3.27273C9.81818 4.17647 10.5508 4.90909 11.4545 4.90909ZM11.4545 16.3636C12.3583 16.3636 13.0909 15.631 13.0909 14.7273C13.0909 13.8235 12.3583 13.0909 11.4545 13.0909C10.5508 13.0909 9.81818 13.8235 9.81818 14.7273C9.81818 15.631 10.5508 16.3636 11.4545 16.3636ZM3.27273 10.6364C4.17647 10.6364 4.90909 9.90374 4.90909 9C4.90909 8.09626 4.17647 7.36364 3.27273 7.36364C2.36899 7.36364 1.63636 8.09626 1.63636 9C1.63636 9.90374 2.36899 10.6364 3.27273 10.6364Z" fill="#00C2FF"/>
</svg>
