<svg width="16" height="18" viewBox="0 0 16 18" fill="none" xmlns="http://www.w3.org/2000/svg">
<path d="M8.36693 0.184332C8.23363 0.0656021 8.06135 0 7.88284 0C7.70433 0 7.53204 0.0656021 7.39874 0.184332C6.70544 0.798579 6.15258 1.55494 5.77774 2.40197C5.40291 3.249 5.2149 4.16682 5.22651 5.09301C5.2275 5.18996 5.25346 5.28503 5.30188 5.36903C5.35031 5.45304 5.41957 5.52314 5.50297 5.57259C6.23414 6.00512 6.8951 6.5466 7.46306 7.17835C7.51597 7.23727 7.5807 7.28438 7.65302 7.31664C7.72534 7.3489 7.80365 7.36557 7.88284 7.36557C7.96203 7.36557 8.04033 7.3489 8.11265 7.31664C8.18498 7.28438 8.2497 7.23727 8.30261 7.17835C8.87041 6.5475 9.53097 6.0068 10.2616 5.57485C10.3452 5.52554 10.4147 5.45549 10.4633 5.37148C10.5119 5.28747 10.5381 5.19233 10.5392 5.09526C10.5509 4.16889 10.363 3.25085 9.98817 2.40361C9.61333 1.55638 9.06037 0.799833 8.36693 0.185461V0.184332ZM0.00299999 11.4641C-0.00582344 11.3659 0.00486291 11.2669 0.0344442 11.1728C0.0640255 11.0787 0.111918 10.9914 0.175366 10.9159C0.238815 10.8404 0.316567 10.7782 0.40415 10.7328C0.491733 10.6875 0.587418 10.6599 0.685701 10.6517C2.18812 10.5267 3.69175 10.8778 4.98351 11.6551C6.27526 12.4324 7.28962 13.5966 7.88284 14.9826C8.47605 13.5966 9.49041 12.4324 10.7822 11.6551C12.0739 10.8778 13.5776 10.5267 15.08 10.6517C15.4918 10.6855 15.801 11.0489 15.7627 11.4641C15.6005 13.2499 14.7765 14.9105 13.4526 16.1198C12.1286 17.3291 10.4004 17.9997 8.60729 18H8.08144C8.01433 17.9999 7.94753 17.9908 7.88284 17.9729C7.81815 17.9908 7.75135 17.9999 7.68423 18H7.15838C5.36527 17.9997 3.63704 17.3291 2.3131 16.1198C0.989167 14.9105 0.165191 13.2499 0.00299999 11.4641ZM7.88284 9.90464C7.28962 8.51865 6.27526 7.3545 4.98351 6.57718C3.69175 5.79986 2.18812 5.44879 0.685701 5.57372C0.587418 5.58195 0.491733 5.60953 0.40415 5.65488C0.316567 5.70023 0.238815 5.76245 0.175366 5.83796C0.111918 5.91347 0.0640255 6.00078 0.0344442 6.09486C0.00486291 6.18895 -0.00582344 6.28796 0.00299999 6.38619C0.0919567 7.37625 0.385937 8.33696 0.86625 9.20727C0.914614 9.29472 0.985337 9.36775 1.07119 9.41891C1.15704 9.47006 1.25493 9.49749 1.35486 9.4984C2.49618 9.50803 3.62325 9.7529 4.66568 10.2177C5.70811 10.6825 6.64349 11.3573 7.41341 12.1999C7.47236 12.2642 7.54544 12.314 7.62689 12.3453C7.70835 12.3767 7.79596 12.3887 7.88284 12.3804C7.96972 12.3887 8.05733 12.3767 8.13878 12.3453C8.22023 12.314 8.29331 12.2642 8.35226 12.1999C9.12209 11.3575 10.0573 10.6828 11.0995 10.218C12.1417 9.75323 13.2686 9.50826 14.4097 9.4984C14.5099 9.49758 14.6081 9.47007 14.6942 9.4187C14.7803 9.36734 14.8511 9.29397 14.8994 9.20614C15.3677 8.35981 15.6701 7.40516 15.7627 6.38619C15.7715 6.28796 15.7608 6.18895 15.7312 6.09486C15.7016 6.00078 15.6538 5.91347 15.5903 5.83796C15.5269 5.76245 15.4491 5.70023 15.3615 5.65488C15.2739 5.60953 15.1783 5.58195 15.08 5.57372C13.5776 5.44879 12.0739 5.79986 10.7822 6.57718C9.49041 7.3545 8.47605 8.51865 7.88284 9.90464Z" fill="white"/>
</svg>
