<svg width="22" height="19" viewBox="0 0 22 19" fill="none" xmlns="http://www.w3.org/2000/svg">
<path d="M21.1145 11.8356C21.2452 12.573 21.6221 13.2948 21.5953 13.5333C21.5396 14.0157 20.463 13.4406 20.463 13.4406C20.463 13.4406 20.3992 13.5918 20.6142 14.0236C20.7738 14.3449 20.9142 14.58 20.8477 14.7521C20.7768 14.9353 20.4636 14.9726 20.0989 14.9301C19.8431 14.9003 19.6264 14.9333 19.3432 15.2385C19.2868 15.2976 19.2296 15.3677 19.1692 15.4491C19.1686 15.4497 19.168 15.4497 19.1674 15.4497L19.1669 15.4504C18.319 16.4304 17.287 17.3322 15.9199 17.9724C14.6517 18.5663 9.06478 20.5158 4.10056 16.6592C3.46822 16.168 2.90074 15.602 2.46544 14.9075C2.35829 14.8769 2.25276 14.8773 2.1388 14.8894C1.77368 14.9304 1.46063 14.8927 1.39074 14.7083C1.32546 14.5363 1.44445 14.2811 1.59064 13.9511C1.70868 13.6851 1.75559 13.5184 1.77245 13.444C1.77653 13.4252 1.76089 13.4097 1.74566 13.4168C1.55814 13.5109 0.696521 13.9164 0.648382 13.4865C0.621864 13.2476 1.0029 12.5278 1.1363 11.7906C1.35497 10.5878 1.52686 9.74114 1.63606 9.23025C1.63851 9.21637 1.64163 9.20248 1.64531 9.18847C1.64775 9.17513 1.65088 9.16125 1.65333 9.14859C1.65578 9.13525 1.65958 9.1226 1.66203 9.10994C1.69467 8.96119 1.73152 8.81407 1.77273 8.66736C1.95998 7.98921 2.22842 7.3169 2.5707 6.55614C2.07706 5.6997 -0.00422162 1.89056 1.13209 0.444428C1.78102 -0.381526 6.21625 1.26793 7.18679 1.64314C8.24926 1.13225 9.45411 0.818551 10.7922 0.761799C11.0626 0.750231 11.3273 0.749687 11.5867 0.760711C11.5932 0.759894 11.6004 0.760166 11.6064 0.761119C12.4775 0.793645 13.2585 1.01847 14.0085 1.28113C14.0966 1.31257 14.184 1.34401 14.2715 1.37531C14.6275 1.50501 14.964 1.65689 15.2833 1.8251C16.266 1.48214 20.8647 -0.073001 21.486 0.773231C22.5713 2.2504 20.3857 5.96971 19.8566 6.82656C19.9847 7.1065 20.0984 7.38264 20.199 7.6619C20.3196 7.99547 20.4194 8.33216 20.4993 8.68165C20.4993 8.68165 20.5001 8.68764 20.5029 8.70016C20.5252 8.79638 20.632 9.26781 20.8014 10.1398C20.8896 10.5953 20.9951 11.1591 21.1145 11.8356Z" fill="white"/>
<path fill-rule="evenodd" clip-rule="evenodd" d="M10.4346 0.863281H11.513C11.6568 1.46964 11.7287 1.96135 11.7287 2.33842C11.7287 2.51378 11.7131 2.68796 11.682 2.86095C11.6204 3.20377 11.3221 3.45323 10.9738 3.45323C10.603 3.45323 10.2905 3.17679 10.2451 2.80882C10.2276 2.66655 10.2189 2.50975 10.2189 2.33842C10.2189 1.84756 10.2908 1.35584 10.4346 0.863281Z" fill="black"/>
<path fill-rule="evenodd" clip-rule="evenodd" d="M12.16 1.0791H13.2385C13.3823 1.53387 13.4542 1.90266 13.4542 2.18546C13.4542 2.23738 13.4517 2.28917 13.4469 2.34082C13.4107 2.72666 13.0868 3.02157 12.6993 3.02157C12.3679 3.02157 12.0958 2.7598 12.0829 2.42872C12.0799 2.35251 12.0784 2.27142 12.0784 2.18546C12.0784 1.81731 12.1056 1.44852 12.16 1.0791Z" fill="black"/>
<path fill-rule="evenodd" clip-rule="evenodd" d="M9.70587 1.0791H8.62743C8.48364 1.53387 8.41175 1.90266 8.41175 2.18546C8.41175 2.23738 8.41417 2.28917 8.41902 2.34082C8.45523 2.72666 8.77911 3.02157 9.16665 3.02157C9.49799 3.02157 9.77014 2.7598 9.78303 2.42872C9.78599 2.35251 9.78748 2.27142 9.78748 2.18546C9.78748 1.81731 9.76027 1.44852 9.70587 1.0791Z" fill="black"/>
<path d="M6.6116 18.3419C6.18179 18.2068 5.76486 18.0289 5.36096 17.8239C5.16003 17.7195 4.9614 17.6096 4.76739 17.4918C4.57392 17.3732 4.38357 17.2489 4.19797 17.1175C4.01359 16.9853 3.83097 16.8479 3.65378 16.7021C3.47727 16.5555 3.30646 16.4006 3.14297 16.2372C3.05155 16.1463 2.44451 15.5865 2.1846 14.9893C1.94351 14.4354 1.56258 13.1863 1.04179 11.2421L1.4385 9.20162L1.4347 9.21859C1.45899 9.09543 1.49141 8.98184 1.5195 8.86306L1.56332 8.68667L1.61203 8.5137C1.67946 8.28353 1.75448 8.05609 1.83589 7.83208C1.99802 7.3835 2.18321 6.94738 2.37492 6.517L2.38577 6.73622C2.11592 6.26192 1.86641 5.77913 1.63523 5.2854C1.40445 4.79166 1.19252 4.28766 1.01357 3.76779C0.834481 3.24847 0.687682 2.71217 0.61686 2.15097C0.582806 1.8703 0.571681 1.58142 0.604785 1.28748C0.637211 0.995318 0.723635 0.690702 0.899197 0.424402L0.966491 0.326011C0.980601 0.307537 1.00122 0.285231 1.019 0.265799C1.03786 0.247051 1.0578 0.230493 1.07774 0.213388C1.15874 0.149755 1.24313 0.110891 1.32386 0.0824272C1.48639 0.0261841 1.63753 0.011268 1.78501 0.00264678C2.07847 -0.00912186 2.35593 0.0198892 2.62931 0.0593005C3.17499 0.140997 3.7014 0.27182 4.22266 0.416054C5.26355 0.709176 6.27893 1.06319 7.28427 1.45101L7.09474 1.45854C7.44423 1.29049 7.80377 1.14379 8.17104 1.02118C8.53871 0.899663 8.91371 0.801135 9.29279 0.72546C9.67213 0.650743 10.0557 0.599837 10.4403 0.570005C10.8248 0.54072 11.2108 0.53073 11.598 0.547562L11.5572 0.549341C11.5862 0.546467 11.6165 0.547015 11.6454 0.550846L11.6166 0.547973C11.9501 0.560973 12.2815 0.601342 12.6069 0.664564C12.9321 0.728197 13.2513 0.812767 13.5635 0.910611C13.72 0.959191 13.8741 1.01092 14.0281 1.06483C14.1821 1.11971 14.3305 1.17185 14.4873 1.23233C14.7956 1.35207 15.0961 1.4907 15.3875 1.64533L15.1976 1.6311C16.2223 1.27339 17.2562 0.947422 18.3125 0.680986C18.8412 0.549615 19.3752 0.432613 19.925 0.360359C20.2005 0.326011 20.4795 0.300968 20.7719 0.313147C20.9187 0.321221 21.068 0.334632 21.2273 0.381843C21.3067 0.405654 21.3888 0.436171 21.4717 0.488582C21.5129 0.514993 21.5538 0.545783 21.5923 0.583963C21.6118 0.601616 21.6292 0.624879 21.647 0.645817C21.657 0.657585 21.6616 0.665522 21.667 0.67387L21.6833 0.699186C21.8644 0.966717 21.9517 1.27612 21.9836 1.57239C22.0156 1.87058 21.9975 2.16219 21.9581 2.44505C21.8756 3.01077 21.7114 3.5472 21.516 4.06556C21.3207 4.58448 21.0912 5.08574 20.8436 5.57619C20.5954 6.06651 20.3285 6.54519 20.0422 7.01443L20.0562 6.7874C20.3336 7.39773 20.5643 8.03748 20.7131 8.6994L20.7169 8.71992L21.0305 10.2508C20.3486 12.3296 19.87 13.9255 19.5948 15.0387C19.5563 15.1941 19.4302 15.4376 19.2927 15.7026C19.1552 15.9676 19.1108 15.9934 18.9913 16.122C18.9302 16.1859 18.8707 16.2512 18.8084 16.3141C18.745 16.376 18.6834 16.4393 18.6187 16.4998C18.4911 16.6224 18.3596 16.7411 18.2242 16.8552C18.0895 16.9702 17.9513 17.0811 17.8085 17.1857C17.6666 17.2915 17.5214 17.3929 17.3715 17.4866C17.2229 17.5824 17.0699 17.6709 16.9141 17.7537C16.6026 17.919 16.2797 18.0618 15.9453 18.1681C15.9029 18.1815 15.8578 18.1578 15.8445 18.1151C15.8333 18.0796 15.8477 18.0422 15.8773 18.0228C16.1668 17.8335 16.4508 17.6451 16.725 17.4451C16.862 17.3452 16.997 17.243 17.1304 17.1393C17.2627 17.0341 17.3941 16.9283 17.5228 16.8191C17.6508 16.7093 17.7774 16.5978 17.9017 16.4838C18.0256 16.3693 18.1467 16.2519 18.2668 16.1331C18.3858 16.0133 18.4725 15.9353 18.6195 15.7688C18.6521 15.732 18.8084 15.4627 18.8987 15.097C18.959 14.8532 19.5132 13.2683 20.5616 10.3422L20.2438 8.78629L20.2476 8.80682C20.1071 8.18213 19.8892 7.5759 19.622 6.98816L19.5688 6.87115L19.636 6.76113C19.9145 6.30462 20.1764 5.83497 20.4183 5.35724C20.6597 4.87924 20.8824 4.39194 21.0697 3.89437C21.2574 3.39776 21.4112 2.88815 21.4852 2.37759C21.5212 2.12292 21.5353 1.86757 21.509 1.62494C21.4829 1.38273 21.4136 1.15529 21.29 0.972465C21.2413 0.857378 20.9929 0.804967 20.7508 0.794704C20.5045 0.784167 20.2442 0.806062 19.9855 0.838631C19.4663 0.906779 18.945 1.02022 18.4277 1.14899C17.3928 1.40996 16.3671 1.73305 15.3551 2.08638L15.2567 2.12073L15.1652 2.07215C14.8893 1.92572 14.606 1.79504 14.316 1.68241C14.1734 1.6274 14.0193 1.57308 13.8711 1.52025C13.7224 1.46812 13.5722 1.41776 13.4224 1.37123C13.1226 1.27722 12.8208 1.19757 12.5168 1.13805C12.2128 1.07907 11.9061 1.04184 11.599 1.0298L11.5701 1.02693C11.5858 1.03049 11.603 1.03062 11.6188 1.02748L11.5778 1.02926C11.212 1.01324 10.8434 1.02269 10.4767 1.0506C10.1101 1.07893 9.74526 1.12751 9.38491 1.1984C9.02483 1.27038 8.66936 1.36384 8.32096 1.47893C7.97295 1.59511 7.63268 1.73401 7.30191 1.89302L7.2087 1.93777L7.11237 1.90055C6.12155 1.51806 5.1139 1.16719 4.09553 0.880505C3.58649 0.739555 3.07269 0.6127 2.56066 0.536204C2.30559 0.498982 2.04876 0.474077 1.80767 0.484066C1.68895 0.490224 1.57132 0.50514 1.48097 0.537709C1.43579 0.55331 1.3978 0.572878 1.37324 0.592447C1.36822 0.597647 1.36184 0.602163 1.35696 0.606816C1.35289 0.6127 1.34977 0.614342 1.34339 0.622553L1.29753 0.690975C1.17611 0.87421 1.10596 1.10151 1.07951 1.34359C1.05224 1.58567 1.06024 1.83951 1.09145 2.0935C1.15548 2.60242 1.29306 3.11189 1.46509 3.60987C1.63672 4.10867 1.8424 4.59857 2.06748 5.07986C2.2927 5.56087 2.53773 6.0349 2.79985 6.49551L2.86077 6.60253L2.8107 6.71488C2.62171 7.13923 2.44099 7.56537 2.28497 7.99738C2.20641 8.21333 2.13478 8.43091 2.0706 8.65L2.02407 8.81503L1.98323 8.97966C1.95745 9.08872 1.92557 9.20052 1.9044 9.30726L1.9006 9.32423L1.51163 11.3297C2.33269 13.1124 2.78929 14.2238 2.88143 14.6638C3.01963 15.3239 3.39842 15.7874 3.49409 15.8883C3.79054 16.2008 3.7999 16.193 3.96217 16.337C4.12348 16.4819 4.29199 16.6202 4.46457 16.7553C4.63619 16.8911 4.81013 17.0245 4.98922 17.1507C5.16736 17.2782 5.34807 17.4029 5.53313 17.5212C5.90108 17.7619 6.28273 17.9825 6.67333 18.1941C6.71227 18.2152 6.72693 18.264 6.70617 18.3033C6.68758 18.3376 6.64742 18.3531 6.6116 18.3419Z" fill="black"/>
<path d="M5.0537 3.31675C4.85035 3.46877 4.34778 4.25882 3.96357 4.89242C3.39668 3.9987 3.11707 2.63937 3.06964 2.00967C3.06912 2.00269 3.06847 1.99557 3.06808 1.98926C3.61614 2.1586 4.23825 2.4006 4.37143 2.55893C4.61011 2.84189 5.40321 3.05689 5.0537 3.31675Z" fill="#FC7E81"/>
<path d="M3.96419 4.95476L3.93639 4.91098C3.37327 4.02344 3.08612 2.66197 3.03726 2.01252L3.0322 1.94336L3.07728 1.95733C3.59506 2.11727 4.25108 2.36518 4.3957 2.53707C4.47677 2.63309 4.62814 2.7232 4.77458 2.81036C4.98507 2.93566 5.16697 3.04376 5.17334 3.17645C5.1762 3.23594 5.14228 3.29248 5.07238 3.34445C4.91685 3.46075 4.53277 4.01699 3.99083 4.91058L3.96419 4.95476ZM3.10431 2.03575C3.15823 2.68023 3.43329 3.96623 3.96316 4.83001C4.3458 4.20084 4.83162 3.44154 5.03457 3.28979C5.08537 3.25205 5.11032 3.21499 5.10863 3.1798C5.10395 3.08378 4.9201 2.97433 4.74222 2.86864C4.59111 2.7788 4.43494 2.68587 4.34684 2.58126C4.22354 2.43447 3.64183 2.20443 3.10431 2.03575Z" fill="#390075"/>
<path d="M3.75253 5.21161C4.20717 4.4037 4.68219 3.82103 5.02245 3.45632C5.27584 3.18477 5.20811 2.76298 4.88112 2.57524C4.12604 2.14177 3.28558 1.87995 2.74748 1.74216C2.44812 1.66548 2.1552 1.88125 2.15684 2.17524C2.15972 2.67748 2.23592 3.46138 2.59274 4.28473C2.781 4.71923 2.96652 5.02789 3.12099 5.24171C3.27805 5.45889 3.62173 5.44397 3.75253 5.21161Z" fill="#F9F154"/>
<path d="M3.67295 5.42863C3.86597 5.01987 4.08597 4.62292 4.33389 4.24261C4.45758 4.05225 4.58774 3.86573 4.72573 3.68444L4.83162 3.55016C4.84848 3.52899 4.86992 3.5037 4.88314 3.48583C4.89299 3.46975 4.90661 3.45628 4.91417 3.4391C4.95059 3.37477 4.97163 3.3022 4.96866 3.22881C4.96731 3.15582 4.94708 3.08353 4.90891 3.02429C4.89164 2.99336 4.86682 2.96835 4.84281 2.94361C4.82878 2.93316 4.81651 2.92107 4.80181 2.91172C4.78508 2.9021 4.77739 2.89481 4.75015 2.88038C4.56603 2.77441 4.37436 2.68109 4.18066 2.59161C3.79219 2.41444 3.38713 2.27067 2.97708 2.14573C2.87511 2.1155 2.76936 2.08567 2.66927 2.05969C2.62746 2.05035 2.58672 2.05309 2.54949 2.07467C2.51335 2.09612 2.48394 2.13048 2.47369 2.17047C2.47153 2.18064 2.46775 2.19054 2.46802 2.20181L2.46721 2.21006L2.46654 2.21418V2.22422V2.26435C2.46614 2.31782 2.46748 2.37142 2.46843 2.42489C2.47814 2.85372 2.5294 3.28282 2.62436 3.70162C2.67076 3.91123 2.72903 4.11822 2.79957 4.32109C2.86782 4.52492 2.94795 4.72903 3.03656 4.9253C3.08121 5.02358 3.12667 5.1213 3.17644 5.21628C3.20126 5.26383 3.22675 5.31098 3.25333 5.3573L3.29271 5.42437C3.30121 5.4377 3.30957 5.45131 3.32009 5.46285C3.36056 5.50945 3.42611 5.53872 3.49531 5.53391C3.56424 5.52993 3.63019 5.49405 3.67444 5.42959L3.67295 5.42863ZM3.8796 5.54092C3.81957 5.67438 3.6913 5.78365 3.54185 5.81595C3.39361 5.84894 3.22743 5.80963 3.10482 5.70545C3.09011 5.69211 3.07487 5.67892 3.06111 5.66449L3.02281 5.61858L2.96993 5.54642C2.93608 5.49914 2.90343 5.45103 2.8716 5.40251C2.80834 5.30534 2.74737 5.20679 2.6918 5.10549C2.58052 4.90249 2.47976 4.69728 2.38979 4.48286C2.30117 4.26776 2.22523 4.04702 2.1621 3.82271C2.03787 3.37313 1.96585 2.90938 1.94575 2.4422C1.94399 2.38365 1.94184 2.32524 1.9417 2.26669L1.9413 2.2227L1.94116 2.21171L1.94184 2.19494L1.94359 2.16126C1.94534 2.11646 1.95465 2.07124 1.96571 2.02739C2.01144 1.84967 2.13122 1.69683 2.28444 1.60571C2.43754 1.51293 2.63083 1.48723 2.80213 1.53259C2.91476 1.56351 3.02065 1.59512 3.12937 1.62907C3.56127 1.76336 3.98346 1.93187 4.39108 2.13652C4.5953 2.2381 4.79331 2.35396 4.98647 2.47849C5.00751 2.49086 5.04379 2.51766 5.07279 2.5391C5.10287 2.56219 5.13025 2.58927 5.15777 2.61539C5.2093 2.67174 5.25705 2.73249 5.29171 2.80066C5.36495 2.93495 5.39814 3.08847 5.39126 3.23939C5.3864 3.39058 5.33528 3.53902 5.2534 3.66286C5.23438 3.69502 5.20903 3.72196 5.18623 3.75096C5.16451 3.77639 5.14887 3.79247 5.12985 3.81378L5.02208 3.93569C4.87842 4.0987 4.74071 4.26817 4.60865 4.44246C4.34428 4.79116 4.1031 5.15992 3.88108 5.54161L3.8796 5.54092Z" fill="black"/>
<path d="M18.5164 5.38381C18.1166 4.59953 17.6979 4.02515 17.3926 3.65814C17.1546 3.37221 17.2345 2.94232 17.5596 2.76021C18.3553 2.31464 19.2383 2.06978 19.7598 1.95281C20.0169 1.89512 20.2638 2.08387 20.2725 2.34627C20.29 2.87759 20.2022 3.79838 19.5901 4.85808C19.456 5.09017 19.3321 5.28172 19.2238 5.43644C19.0449 5.69233 18.658 5.66162 18.5164 5.38381Z" fill="#F9F154"/>
<path d="M18.4732 5.48708C18.2516 5.09372 18.0084 4.714 17.7422 4.35328C17.6087 4.17334 17.4695 3.99804 17.3239 3.82964L17.2695 3.76633L17.2421 3.73454L17.2075 3.69008C17.161 3.63057 17.1256 3.56248 17.0961 3.49213C17.0418 3.34934 17.0252 3.19162 17.0514 3.0401C17.079 2.88915 17.1454 2.74283 17.2489 2.62536C17.3011 2.56768 17.359 2.51351 17.425 2.47243C17.4604 2.44823 17.4836 2.43585 17.5094 2.4208L17.5862 2.37634C17.7921 2.25999 18.0023 2.15223 18.218 2.05867C18.6489 1.87015 19.0925 1.71652 19.5454 1.59961L19.7155 1.55628C19.7767 1.54305 19.8135 1.52842 19.9196 1.51421C20.1049 1.49522 20.2957 1.55515 20.4387 1.67108C20.5836 1.78546 20.6794 1.96286 20.6996 2.1466C20.7016 2.16841 20.704 2.195 20.7045 2.21272L20.7051 2.25845C20.7052 2.28898 20.7065 2.3195 20.7055 2.34989C20.7048 2.41081 20.7037 2.47159 20.7003 2.53222C20.6905 2.77491 20.6543 3.0145 20.6052 3.25001C20.5545 3.4851 20.4919 3.71723 20.4078 3.94107C20.3245 4.16518 20.2271 4.38268 20.1189 4.59385C20.063 4.69853 20.0055 4.80193 19.9432 4.90252C19.8833 5.00508 19.8197 5.10117 19.7553 5.19895C19.6907 5.29617 19.6222 5.39099 19.5527 5.48497L19.4999 5.55517L19.4731 5.5902L19.4343 5.63564C19.3801 5.69375 19.3155 5.74496 19.2418 5.77591C19.096 5.84231 18.9304 5.84203 18.7887 5.78871C18.7181 5.76015 18.6541 5.71809 18.5997 5.66674C18.5459 5.61426 18.5053 5.55151 18.475 5.48623L18.4732 5.48708ZM18.6907 5.37636C18.7799 5.52197 18.9755 5.55489 19.0919 5.47639C19.1217 5.45894 19.1453 5.43376 19.1657 5.40646L19.1803 5.38522L19.202 5.34991L19.2453 5.27844C19.3026 5.18291 19.3568 5.08542 19.4111 4.98792C19.6278 4.59625 19.8083 4.19838 19.9371 3.78139C20.0653 3.36594 20.1438 2.93698 20.1564 2.50943C20.1588 2.45597 20.1591 2.40279 20.1591 2.34961C20.1596 2.32288 20.1581 2.29657 20.1577 2.26998L20.1567 2.23017L20.1547 2.21103C20.1484 2.16855 20.1282 2.12958 20.0928 2.10313C20.058 2.07654 20.0154 2.06472 19.9734 2.06852C19.9663 2.06782 19.8932 2.08428 19.8433 2.09567L19.6816 2.1345C19.2516 2.24283 18.8262 2.37212 18.4156 2.53377C18.2109 2.61579 18.0076 2.70105 17.8115 2.79925L17.7382 2.83639C17.7139 2.84863 17.6863 2.86228 17.6747 2.87015C17.642 2.88662 17.6151 2.91067 17.5889 2.93501C17.5376 2.98552 17.5025 3.05263 17.4836 3.12452C17.4663 3.19711 17.4698 3.27449 17.4914 3.34666C17.5046 3.38183 17.5189 3.41743 17.5414 3.44908L17.5574 3.47342L17.584 3.50789L17.6372 3.57753C17.7769 3.76493 17.9079 3.95753 18.0325 4.15378C18.2809 4.54658 18.5017 4.95472 18.6925 5.37523L18.6907 5.37636Z" fill="black"/>
<path d="M11.8625 13.5427C11.8555 13.7332 11.5314 13.9595 11.2353 14.127C10.9395 14.2945 10.5721 14.2816 10.2891 14.0938C10.0059 13.906 9.69903 13.6575 9.70599 13.467C9.71873 13.1145 10.1985 13.1578 10.794 13.1787C11.3894 13.1996 11.8752 13.1903 11.8625 13.5427Z" fill="black"/>
<path d="M12.325 14.05C12.3734 14.1023 12.4094 14.1586 12.4386 14.2211C12.4679 14.2833 12.4894 14.3504 12.5002 14.4212C12.5237 14.5624 12.5046 14.7183 12.4356 14.8589C12.3702 15.0011 12.2488 15.13 12.0987 15.2105C11.9487 15.2911 11.7767 15.3279 11.6107 15.3194C11.4445 15.3117 11.2826 15.264 11.1408 15.1817C11.1055 15.1607 11.07 15.1404 11.0383 15.114C11.0056 15.0893 10.9736 15.0638 10.9453 15.0341L10.902 14.9909C10.889 14.9764 10.8774 14.9618 10.8652 14.9472C10.8403 14.9185 10.818 14.8881 10.7972 14.8569C10.712 14.7331 10.6519 14.5977 10.6127 14.4604C10.5922 14.3918 10.5784 14.3221 10.5683 14.252C10.5628 14.2169 10.5591 14.1817 10.5565 14.1456C10.5551 14.1279 10.5545 14.1093 10.5537 14.091C10.5534 14.0708 10.5529 14.0562 10.5543 14.0278L10.5639 13.8156L10.7916 13.814H10.7931L11.0188 13.8125L11.0302 14.0278C11.0317 14.0563 11.0315 14.0708 11.0315 14.091C11.0309 14.1094 11.0306 14.1279 11.0293 14.1457C11.0273 14.1818 11.0246 14.2172 11.0198 14.2525C11.0111 14.323 10.9974 14.3929 10.9777 14.462C10.9402 14.6004 10.8795 14.7367 10.7936 14.8609C10.7725 14.8923 10.7501 14.9227 10.7249 14.9516C10.7126 14.9663 10.7009 14.9809 10.6877 14.9954L10.6437 15.0386C10.6149 15.0681 10.5826 15.0936 10.5493 15.118C10.5171 15.144 10.4815 15.1647 10.446 15.1855C10.3026 15.2662 10.1406 15.3146 9.97388 15.3221C9.80766 15.3303 9.63446 15.2967 9.483 15.2159C9.33086 15.1374 9.20408 15.0102 9.13566 14.8664C9.09809 14.7958 9.07878 14.7199 9.06549 14.6448C9.05557 14.5689 9.05677 14.4936 9.06858 14.4218C9.08106 14.35 9.10386 14.282 9.13606 14.2197C9.16678 14.1568 9.20703 14.1009 9.25935 14.0504C9.27545 14.0349 9.30161 14.0347 9.31785 14.0502C9.3259 14.0577 9.32992 14.0676 9.33005 14.0777V14.0833C9.33193 14.2039 9.34736 14.3185 9.37782 14.4151C9.40894 14.512 9.45294 14.5933 9.5113 14.6579C9.56738 14.7227 9.62896 14.7692 9.70167 14.7983C9.77452 14.8256 9.85703 14.8386 9.94155 14.8299C10.0257 14.8215 10.1101 14.7972 10.1834 14.7563C10.2578 14.7163 10.3161 14.664 10.3765 14.587C10.4335 14.5134 10.4786 14.4277 10.5088 14.3345C10.5243 14.2881 10.5359 14.2396 10.5439 14.191C10.5482 14.1667 10.5514 14.1421 10.5532 14.1181L10.5552 14.0827L10.5555 14.0557L10.7927 14.2695H10.7912L11.0284 14.0557L11.028 14.0827L11.0293 14.1181C11.0305 14.1421 11.0328 14.1668 11.0363 14.1913C11.0431 14.2404 11.0544 14.2891 11.0692 14.3359C11.0976 14.4303 11.1433 14.5167 11.2012 14.5909C11.2617 14.6689 11.323 14.7199 11.3981 14.7599C11.473 14.7992 11.5575 14.8243 11.6421 14.8324C11.8141 14.8468 11.9692 14.7968 12.0858 14.665C12.118 14.6334 12.1411 14.5933 12.166 14.5527C12.1876 14.5106 12.2064 14.465 12.2218 14.4154C12.2484 14.3166 12.2606 14.2007 12.2539 14.0832L12.2536 14.0783C12.2524 14.0568 12.2696 14.0383 12.292 14.0372C12.3052 14.0363 12.3171 14.0416 12.325 14.05Z" fill="black"/>
<path d="M9.015 11.3306C8.98907 11.3306 8.96286 11.3268 8.93678 11.3188L8.7362 11.2568L5.78684 10.2005C5.65376 10.1528 5.58586 10.0101 5.63515 9.88157C5.68445 9.75302 5.83247 9.68776 5.9657 9.7352L8.90962 10.7895L9.09309 10.846C9.22849 10.8877 9.30304 11.0272 9.25999 11.1578C9.22509 11.2634 9.12392 11.3306 9.015 11.3306Z" fill="black"/>
<path d="M5.77569 11.8471C5.84739 12.851 6.57312 13.5231 7.3969 13.3484C8.22067 13.1737 8.83029 12.2183 8.75872 11.2144C8.7541 11.1502 8.74677 11.0873 8.73699 11.026L6.35285 10.1719C5.96323 10.5827 5.72978 11.2049 5.77569 11.8471Z" fill="black"/>
<path d="M7.15281 11.3276C7.21381 11.0074 7.10231 10.7171 6.90377 10.6793C6.70523 10.6415 6.49483 10.8704 6.43384 11.1907C6.37284 11.5109 6.48434 11.8012 6.68288 11.839C6.88142 11.8768 7.09182 11.6478 7.15281 11.3276Z" fill="white"/>
<path d="M7.94465 12.2602C7.96519 12.0985 7.90058 11.9571 7.80034 11.9443C7.7001 11.9316 7.60219 12.0524 7.58165 12.2141C7.56111 12.3758 7.62572 12.5172 7.72596 12.5299C7.8262 12.5426 7.92412 12.4219 7.94465 12.2602Z" fill="white"/>
<path d="M13.1983 11.3305C13.0893 11.3305 12.9883 11.2632 12.9534 11.1577C12.9102 11.0272 12.9849 10.8876 13.1203 10.846L13.3038 10.7895L16.2477 9.73513C16.3811 9.68782 16.5288 9.75308 16.5782 9.8815C16.6275 10.0099 16.5596 10.1528 16.4266 10.2005L13.4658 11.2606L13.2766 11.3187C13.2505 11.3267 13.2242 11.3305 13.1983 11.3305Z" fill="black"/>
<path d="M16.4377 11.8471C16.366 12.851 15.6403 13.5231 14.8165 13.3484C13.9927 13.1737 13.3831 12.2183 13.4547 11.2144C13.4593 11.1502 13.4666 11.0873 13.4764 11.026L15.8605 10.1719C16.25 10.5827 16.4835 11.2049 16.4377 11.8471Z" fill="black"/>
<path d="M15.5298 11.8363C15.7283 11.7985 15.8398 11.5083 15.7788 11.188C15.7178 10.8678 15.5074 10.6388 15.3089 10.6766C15.1104 10.7145 14.9988 11.0047 15.0598 11.325C15.1208 11.6452 15.3312 11.8741 15.5298 11.8363Z" fill="white"/>
<path d="M14.4866 12.5293C14.5869 12.5166 14.6515 12.3752 14.6309 12.2135C14.6104 12.0518 14.5125 11.931 14.4122 11.9437C14.312 11.9565 14.2474 12.0979 14.2679 12.2596C14.2885 12.4213 14.3864 12.542 14.4866 12.5293Z" fill="white"/>
<path d="M18.7675 15.4393C18.604 15.4712 18.4377 15.697 18.2727 15.7156C18.1769 15.727 18.0805 15.7328 17.984 15.7331C17.8809 15.7327 17.7776 15.7427 17.6745 15.7499C17.5974 15.7554 17.5204 15.7496 17.4431 15.7523C17.2904 15.7575 17.1371 15.7579 16.9844 15.751C16.7781 15.7415 16.5717 15.7277 16.3662 15.707C16.2446 15.6947 16.1245 15.6663 16.0014 15.6659C15.8991 15.6322 15.791 15.6304 15.6866 15.6077C15.5739 15.5833 15.4598 15.5666 15.3493 15.531C15.2829 15.5097 15.2147 15.4912 15.1474 15.4748C15.0529 15.4518 14.9634 15.4157 14.8746 15.3806C14.7728 15.3403 14.6676 15.3065 14.5713 15.2501C14.5038 15.2106 14.4306 15.1799 14.3604 15.144C14.1985 15.0612 14.0524 14.9552 13.9037 14.8529C13.8098 14.7882 13.7266 14.7093 13.6456 14.6288C13.61 14.5836 13.5649 14.547 13.5303 14.5009C13.3307 14.2821 13.2111 14.0129 13.0652 13.7602C12.7545 13.2217 12.5241 12.6445 12.2614 12.0829C12.207 11.9665 12.1509 11.8509 12.0956 11.7349C12.0748 11.6899 12.0509 11.6465 12.0305 11.6013C11.9905 11.4718 11.9441 11.346 11.8319 11.2585C11.772 11.2078 11.7098 11.161 11.6375 11.1286C11.6044 11.1132 11.5691 11.1031 11.5329 11.0986C11.3845 11.0572 11.2314 11.0353 11.0774 11.0335C11.0065 11.0222 10.9349 11.0271 10.8638 11.0235C10.7743 11.019 10.6859 11.0285 10.597 11.0292C10.4485 11.0318 10.3009 11.0526 10.1574 11.0912C10.0672 11.0909 9.99641 11.1392 9.93006 11.1907C9.80473 11.2878 9.71513 11.4116 9.6755 11.5682C9.591 11.7422 9.50403 11.9149 9.41741 12.0878C9.34586 12.2307 9.28193 12.3772 9.20847 12.5191C9.1326 12.6762 9.0567 12.8333 8.98078 12.9903C8.78546 13.3921 8.56093 13.7779 8.32629 14.1571C8.1972 14.3657 8.02274 14.5393 7.8294 14.6929C7.69783 14.7974 7.55422 14.8829 7.41007 14.966C7.32031 15.0174 7.22774 15.0636 7.13278 15.1045C7.0493 15.1408 6.96446 15.1742 6.88001 15.2074C6.77931 15.2482 6.67584 15.2817 6.57039 15.3077C6.49385 15.3257 6.41888 15.3496 6.3415 15.3662C6.22334 15.3914 6.10524 15.4142 5.98581 15.4332C5.84893 15.4549 5.7114 15.4718 5.57386 15.4815C5.47981 15.4881 5.38431 15.4938 5.29177 15.5051C5.12366 15.5257 4.95574 15.5095 4.78803 15.5227C4.70223 15.529 4.61602 15.5267 4.53066 15.516C4.44321 15.5054 4.35523 15.5059 4.2683 15.5018C4.10359 15.4939 3.93923 15.4808 3.77568 15.4641C3.68227 15.4545 3.58776 15.443 3.49428 15.4308C3.40409 15.4191 3.3145 15.4019 3.22529 15.387C3.1225 15.3699 3.01765 15.3556 2.91826 15.3192C2.8526 15.2951 2.78298 15.2835 2.71579 15.2647C2.62608 15.2396 2.53995 15.2057 2.45248 15.1757C2.36644 15.1462 2.27793 15.115 2.20204 15.0664C1.96222 14.9128 1.69855 14.8407 1.41989 14.8075C1.27289 14.79 1.12532 14.7879 0.977995 14.7808C0.886776 14.7763 0.797637 14.8059 0.706851 14.8146C0.649114 14.8201 0.591809 14.8246 0.535121 14.8029C0.508012 14.7925 0.503274 14.7816 0.516708 14.7568C0.533453 14.726 0.547503 14.6936 0.562717 14.6619C0.57146 14.6462 0.582121 14.6317 0.59445 14.6187C0.614758 14.5837 0.643509 14.5549 0.668515 14.5232C0.712108 14.4762 0.743205 14.4198 0.76997 14.3633C0.839953 14.2154 0.917908 14.0689 0.965354 13.9134C1.01564 13.7487 0.994793 13.5814 0.885593 13.436C0.868701 13.4134 0.845388 13.3965 0.818724 13.3875C0.739547 13.3578 0.65547 13.3434 0.570951 13.3451C0.497122 13.347 0.423227 13.3462 0.349363 13.3467C0.296635 13.3471 0.249387 13.3317 0.225671 13.2822C0.199935 13.2284 0.228244 13.1827 0.262513 13.1429C0.292324 13.1082 0.324524 13.0754 0.357412 13.0436C0.427291 12.9761 0.446282 12.8811 0.490002 12.7995C0.556409 12.6756 0.619443 12.5498 0.683724 12.4248C0.775251 12.2462 0.851509 12.0602 0.911675 11.8688C0.957764 11.7264 0.987817 11.5792 1.00127 11.4301C1.00671 11.3654 1.00903 11.3003 1.01334 11.2354C1.02732 11.0251 1.04331 10.8152 1.06372 10.6053C1.08108 10.4268 1.10478 10.2491 1.12274 10.0707C1.13487 9.95032 1.16072 9.83138 1.17591 9.71121C1.20591 9.47386 1.26872 9.24198 1.29126 9.00348C1.29475 8.99624 1.29753 8.98869 1.29957 8.98091C1.32459 8.69019 1.37398 8.40504 1.49956 8.13869C1.54874 8.03438 1.6222 7.94505 1.7001 7.86214C1.76713 7.7908 1.82224 7.70651 1.90753 7.65306C2.01442 7.55358 2.14453 7.4969 2.28064 7.45345C2.341 7.43418 2.40075 7.41425 2.45938 7.39019C2.56404 7.34723 2.67601 7.34504 2.78581 7.34435C3.26043 7.34139 3.73507 7.34284 4.2097 7.34322C4.35494 7.34334 4.50027 7.34071 4.64539 7.34447C4.72398 7.34651 4.80263 7.33834 4.88104 7.34717C4.95726 7.32973 5.03433 7.3458 5.11109 7.34194C5.1909 7.33793 5.27157 7.33941 5.35138 7.34243C5.42656 7.34528 5.50158 7.33413 5.57674 7.3449C5.63208 7.35282 5.68903 7.34607 5.7441 7.34445C5.86456 7.34091 5.98507 7.34563 6.10546 7.34318C6.1745 7.34178 6.24482 7.33848 6.31495 7.34482C6.38586 7.35124 6.458 7.34413 6.52959 7.3426C6.59424 7.34122 6.65891 7.34322 6.72357 7.34256C6.81247 7.34164 6.90183 7.33929 6.99033 7.34298C7.06549 7.34612 7.14073 7.34327 7.21573 7.34529C7.32242 7.34817 7.42959 7.3482 7.53655 7.34809C7.76334 7.34785 7.99014 7.34777 8.21693 7.34784C8.48425 7.34807 8.75157 7.34852 9.01889 7.34919C9.29676 7.34945 9.57463 7.34945 9.8525 7.34921C10.1163 7.34884 10.3801 7.34715 10.6439 7.34708C10.862 7.34702 11.08 7.34902 11.2981 7.34914C11.5707 7.3493 11.8433 7.34817 12.1159 7.34814C12.3885 7.34812 12.6611 7.34918 12.9337 7.34902C13.2116 7.34885 13.4895 7.34742 13.7674 7.34721C13.9977 7.34703 14.228 7.34864 14.4583 7.34786C14.588 7.34742 14.7178 7.33868 14.8473 7.34354C14.9173 7.34617 14.987 7.34081 15.0571 7.34479C15.1355 7.34926 15.2144 7.34423 15.2931 7.34341C15.3595 7.34272 15.426 7.34377 15.4924 7.34312C15.5849 7.34222 15.6777 7.34055 15.7699 7.34325C15.8415 7.34535 15.913 7.33948 15.9848 7.34494C16.0596 7.35064 16.1351 7.34696 16.2103 7.34738C16.2339 7.33984 16.2592 7.34051 16.2824 7.34929C16.2902 7.3534 16.2992 7.35482 16.308 7.35334C16.3847 7.33007 16.4638 7.36988 16.5405 7.34383C16.5669 7.33488 16.5923 7.35878 16.6177 7.35294C16.6949 7.33519 16.7734 7.3661 16.8504 7.34403C16.8677 7.33962 16.8858 7.34085 16.9023 7.34753C16.9272 7.35661 16.9545 7.35679 16.9795 7.34805C17.0065 7.33963 17.0354 7.33979 17.0623 7.34852C17.0857 7.35621 17.111 7.3564 17.1346 7.34908C17.1413 7.34706 17.1479 7.3421 17.1547 7.34351C17.234 7.36008 17.3148 7.33274 17.394 7.35129C17.4229 7.35808 17.4499 7.33915 17.4771 7.34391C17.5537 7.35734 17.6303 7.34434 17.7069 7.34586C17.7818 7.34734 17.8575 7.34481 17.9325 7.34527C18.013 7.34576 18.0936 7.34088 18.1742 7.34648C18.2423 7.3512 18.3108 7.34567 18.3791 7.34612C18.5316 7.34711 18.6842 7.34419 18.8368 7.34612C18.977 7.3479 19.1175 7.34338 19.2579 7.34304C19.4392 7.34261 19.6191 7.35359 19.7923 7.41334C19.8607 7.43613 19.9263 7.46691 19.9875 7.50507C20.066 7.55506 20.1503 7.59428 20.2252 7.65158C20.2915 7.70227 20.355 7.75406 20.4079 7.81828C20.465 7.88767 20.5257 7.9539 20.5851 8.02118C20.6262 8.05124 20.6492 8.09619 20.6724 8.13871C20.7116 8.21085 20.7533 8.28269 20.7713 8.36458C20.8316 8.51624 20.8701 8.67577 20.8855 8.83834C20.8968 8.96922 20.9022 9.10082 20.9185 9.23096C20.9342 9.35618 20.9425 9.48146 20.9482 9.60721C20.9496 9.61767 20.9523 9.62792 20.956 9.63777C20.9806 9.76971 20.9805 9.90385 20.9902 10.037C21.0035 10.2193 21.0141 10.4018 21.0295 10.5839C21.0476 10.7984 21.0669 11.0133 21.1039 11.2257C21.1195 11.3152 21.135 11.4049 21.1537 11.494C21.184 11.6708 21.2235 11.8458 21.2721 12.0185C21.3296 12.218 21.4049 12.412 21.497 12.5981C21.552 12.71 21.6145 12.8182 21.6701 12.9298C21.722 13.034 21.788 13.1296 21.8445 13.2308C21.8852 13.3037 21.8824 13.2921 21.9137 13.3705C21.9359 13.4232 21.892 13.4996 21.8445 13.5264C21.8045 13.5514 21.8028 13.5097 21.7553 13.5103C21.6517 13.5114 21.537 13.5084 21.4339 13.5264C21.2214 13.5636 21.1107 13.6123 21.1537 13.827C21.2192 14.1542 21.2361 14.361 21.4123 14.6427C21.432 14.6743 21.4459 14.7088 21.4646 14.7404C21.4893 14.7822 21.4705 14.7944 21.4339 14.8051C21.3602 14.8266 21.2858 14.8164 21.2145 14.8021C20.988 14.7566 20.9785 14.7848 20.7536 14.8085C20.5858 14.8271 20.4205 14.8643 20.2608 14.9193C20.157 14.9543 20.0637 15.0102 19.9681 15.0626C19.8752 15.1118 19.7794 15.1554 19.6814 15.1931C19.5809 15.2334 19.4783 15.2688 19.3752 15.3019C19.2632 15.3363 19.1494 15.3649 19.0344 15.3876C18.9456 15.4063 18.8575 15.4274 18.7675 15.4393Z" fill="#1CC3A5"/>
<path d="M4.80534 7.12746L4.78996 7.13L4.7608 7.12805L4.72241 7.12719L4.58475 7.129L4.48248 7.12714C4.46818 7.12697 4.45342 7.12685 4.43772 7.12678L4.17402 7.1274L3.06871 7.12706L2.70924 7.12856L2.6334 7.12981C2.51556 7.13327 2.43752 7.14449 2.35402 7.17518L2.32876 7.18499C2.31323 7.19133 2.29753 7.19741 2.28081 7.20355L2.22682 7.22247L2.16186 7.24362L2.11397 7.25947C1.97358 7.30794 1.86217 7.3653 1.76595 7.44602L1.74504 7.46435L1.7566 7.45689C1.69698 7.49404 1.65819 7.53039 1.59699 7.60062L1.53704 7.67015L1.52076 7.68791C1.4174 7.79732 1.34628 7.89177 1.29509 7.99975L1.2717 8.05103C1.17373 8.27457 1.11909 8.51634 1.08889 8.81428L1.08414 8.86353L1.07666 8.87906L1.07203 8.9268L1.06719 8.96939L1.05802 9.03561L1.04563 9.11093L0.984544 9.43998L0.972397 9.51257L0.962721 9.57921L0.953515 9.64733L0.92507 9.82274L0.914003 9.89706L0.908681 9.94016L0.887672 10.1326L0.851716 10.4501L0.840567 10.5649L0.827331 10.7144C0.825192 10.7398 0.823085 10.7655 0.821003 10.7914L0.802842 11.0347L0.786187 11.2983C0.785853 11.3025 0.785507 11.3068 0.785141 11.3111C0.772797 11.4471 0.74505 11.5822 0.7025 11.713C0.654303 11.8655 0.595702 12.0136 0.52693 12.1568L0.478396 12.2539L0.321513 12.5572L0.285603 12.6246L0.272458 12.6518L0.239998 12.7277L0.224963 12.7611C0.213602 12.7848 0.204661 12.799 0.194406 12.8104L0.188065 12.8169C0.147661 12.8557 0.114552 12.8899 0.0841981 12.925C0.00583552 13.0156 -0.0274783 13.1098 0.0263215 13.2215C0.0760717 13.3249 0.172349 13.3696 0.283909 13.3688L0.488791 13.3676C0.49489 13.3675 0.50102 13.3673 0.507351 13.3672C0.559067 13.3661 0.611067 13.373 0.661189 13.3875L0.699935 13.4002L0.698675 13.3984C0.775467 13.5001 0.793664 13.6161 0.75524 13.7413L0.742649 13.7802L0.728699 13.8189L0.712656 13.8594L0.69379 13.9034L0.671367 13.9527L0.629464 14.0408L0.568314 14.1671C0.546137 14.2137 0.526421 14.2474 0.505245 14.2737L0.448932 14.3401C0.435504 14.3562 0.425477 14.369 0.416477 14.382L0.406699 14.3967L0.419631 14.3821C0.398914 14.4039 0.381011 14.4281 0.366333 14.4543L0.334076 14.5216L0.319642 14.5499C0.262904 14.654 0.306523 14.7606 0.414925 14.8019C0.481855 14.8274 0.535594 14.8317 0.619851 14.8254L0.667338 14.8211L0.695583 14.8175L0.746738 14.809L0.807771 14.798L0.845748 14.7923C0.862522 14.7902 0.876395 14.7893 0.889265 14.7892L1.14653 14.8002L1.20573 14.8037L1.25834 14.8077L1.30751 14.8124C1.3156 14.8133 1.32368 14.8142 1.33181 14.8152C1.59698 14.8466 1.8147 14.9114 2.00528 15.023L2.04879 15.0495C2.11011 15.0886 2.16744 15.115 2.25666 15.1474L2.48744 15.2283L2.54659 15.2479L2.60048 15.2638L2.64212 15.2747L2.7245 15.2945L2.75512 15.3026L2.77973 15.3102L2.79117 15.3142C2.85375 15.337 2.91513 15.3523 2.99666 15.3672L3.32398 15.4222L3.37873 15.4302L3.54751 15.4513L3.63793 15.4615C3.65254 15.4631 3.66698 15.4646 3.68129 15.466C3.81983 15.4801 3.95328 15.4911 4.08323 15.4988L4.2211 15.5056L4.35227 15.5105L4.40622 15.5145L4.43067 15.5172C4.50598 15.5266 4.58226 15.53 4.65851 15.5275L4.76668 15.5213L4.82347 15.5196L5.03135 15.5182L5.08638 15.5169L5.13459 15.5147C5.14225 15.5142 5.14978 15.5137 5.15724 15.5131L5.20188 15.509L5.25061 15.5034L5.30566 15.4979L5.4982 15.4837C5.63369 15.4742 5.77366 15.4577 5.92147 15.4343C6.03622 15.4162 6.15434 15.3939 6.2835 15.3665L6.33275 15.3552L6.48561 15.315L6.51462 15.3079C6.60532 15.2857 6.69373 15.2586 6.78018 15.2266L6.99105 15.1438L7.09988 15.0983C7.19921 15.0558 7.29643 15.0075 7.39069 14.9538L7.47738 14.9036L7.55418 14.8577C7.57833 14.843 7.60114 14.8289 7.62292 14.815L7.68548 14.774C7.71552 14.7538 7.74393 14.7337 7.77176 14.7131L7.82694 14.6708C8.05227 14.4928 8.2267 14.3095 8.35565 14.1022L8.46111 13.931C8.47815 13.9031 8.49493 13.8754 8.51146 13.8479L8.6077 13.6861C8.76334 13.4209 8.89582 13.1767 9.01491 12.9331L9.24191 12.4659L9.28639 12.378L9.33019 12.2873L9.4242 12.0907L9.68432 11.5704L9.70707 11.524L9.71734 11.496C9.74713 11.3789 9.81381 11.2823 9.9184 11.2017C9.9841 11.1511 10.019 11.1338 10.0538 11.134L10.0736 11.134L10.0927 11.1289C10.224 11.0938 10.359 11.0749 10.4948 11.0725L10.534 11.0717L10.6514 11.0669L10.7062 11.0656L10.736 11.0661L10.7774 11.0678L10.8493 11.0688C10.8947 11.0693 10.922 11.0709 10.9475 11.0749L10.9691 11.0768C11.1097 11.0784 11.2494 11.0983 11.3849 11.1359L11.4066 11.1402C11.4273 11.1427 11.4475 11.1485 11.4664 11.1573C11.51 11.1767 11.5511 11.2034 11.6011 11.2436L11.6269 11.2649C11.6969 11.3193 11.7337 11.3893 11.7793 11.5361L11.7858 11.5531L11.8045 11.5926L11.8469 11.6775L12.0167 12.032L12.1128 12.2397L12.3539 12.7729L12.4374 12.954L12.5146 13.1172L12.5636 13.2179L12.6111 13.3133L12.6579 13.4044L12.7044 13.4923L12.7512 13.5781C12.7591 13.5923 12.767 13.6064 12.7749 13.6205L12.8515 13.7544L12.9772 13.9825L13.0237 14.0649L13.0663 14.1379C13.0732 14.1493 13.08 14.1605 13.0866 14.1713L13.1257 14.2331L13.1638 14.2894C13.2081 14.3523 13.2527 14.4071 13.3053 14.4645C13.3092 14.47 13.3136 14.4757 13.3193 14.4822L13.3403 14.5054L13.3967 14.5639L13.4133 14.5831L13.4252 14.5964C13.5235 14.6935 13.5953 14.7581 13.6732 14.8145L13.8021 14.9036L13.9012 14.9708L13.9839 15.0247L14.0331 15.0552L14.0799 15.0828L14.1263 15.1085L14.1743 15.1335L14.3285 15.2084L14.3655 15.2281L14.377 15.2346C14.4149 15.2567 14.4505 15.2746 14.4939 15.2934L14.5504 15.3167L14.7862 15.4075L14.8442 15.429C14.8891 15.445 14.9265 15.4567 14.9664 15.4671L14.9906 15.4732C15.0433 15.486 15.0918 15.4989 15.1371 15.5124L15.2238 15.5389L15.2663 15.5503L15.3132 15.5613L15.3685 15.5731L15.5635 15.6122L15.5975 15.6179L15.7182 15.6351L15.7577 15.6416L15.7894 15.648L15.8169 15.6552L15.8525 15.6667L15.8924 15.667L15.9253 15.6684C15.931 15.6688 15.9367 15.6693 15.9427 15.6698L15.9813 15.6738L16.0278 15.6799L16.1681 15.7001L16.2251 15.7067C16.4217 15.7265 16.6269 15.7408 16.8491 15.7509C16.9684 15.7562 17.0915 15.7575 17.2203 15.7549L17.3555 15.7516L17.4871 15.7523L17.5213 15.7514L17.5754 15.7481L17.726 15.7374L17.7399 15.7366C17.7811 15.7343 17.8171 15.7332 17.8511 15.7334C17.9283 15.7331 18.0048 15.7296 18.0809 15.7228L18.4307 15.6871L18.4953 15.6795L18.5532 15.6716L18.6073 15.6631L18.6606 15.6533L18.6968 15.6482L18.7572 15.6376L18.9287 15.6017C19.0464 15.5786 19.1647 15.549 19.2812 15.5134C19.4013 15.4751 19.5024 15.4397 19.5979 15.4016C19.6991 15.3628 19.7998 15.3172 19.8976 15.2658L20.0087 15.205L20.0555 15.1807C20.0626 15.1771 20.0695 15.1737 20.0762 15.1705L20.114 15.1534C20.12 15.1508 20.126 15.1484 20.1319 15.1461L20.1673 15.1332C20.3171 15.0819 20.471 15.0474 20.6274 15.0301L20.7607 15.0165L20.8441 15.009C20.8833 15.0058 20.919 15.0035 20.9521 15.002L21.0151 15.0002C21.0852 14.9994 21.1443 15.0034 21.2042 15.0126L21.2559 15.0218C21.3703 15.0447 21.4535 15.0484 21.5452 15.0217C21.5994 15.006 21.6348 14.9882 21.6661 14.9399C21.7054 14.8791 21.7 14.8176 21.6709 14.76L21.6493 14.7204L21.6409 14.7037C21.6341 14.6903 21.6286 14.6797 21.6234 14.6701L21.6074 14.6429C21.4298 14.3604 21.3113 14.0805 21.253 13.791C21.2267 13.6604 21.2645 13.606 21.3961 13.5831L21.4257 13.579C21.4307 13.5784 21.4359 13.578 21.4412 13.5776L21.4758 13.576L21.5177 13.576L21.6379 13.5791L21.6818 13.5793C21.7602 13.5784 21.826 13.5634 21.8885 13.5246C21.9965 13.4639 22.0267 13.3694 21.9762 13.2501C21.9575 13.2035 21.936 13.1712 21.895 13.1222L21.8629 13.0845L21.8463 13.0644L21.8349 13.0492L21.8268 13.0362L21.7919 12.9762L21.7102 12.8416L21.6803 12.7897L21.6564 12.7441L21.6213 12.6758L21.5068 12.461L21.4842 12.4161C21.3962 12.2392 21.3244 12.0552 21.2694 11.8658C21.2227 11.7006 21.1845 11.5321 21.1551 11.3619L21.1363 11.2676L21.1055 11.0957C21.1017 11.0741 21.0981 11.0527 21.0947 11.0313L21.0849 10.9666L21.0758 10.8997L21.0672 10.829L21.0505 10.669L21.0294 10.4294L21.0074 10.1251L20.9905 9.87963L20.983 9.74237L20.9784 9.67751C20.9768 9.65766 20.975 9.63934 20.973 9.62183L20.9664 9.571L20.9578 9.52068L20.9511 9.49707C20.9468 9.39074 20.94 9.29204 20.93 9.19691L20.9151 9.0679L20.9071 8.97748L20.8921 8.77452L20.8895 8.74267L20.882 8.67688C20.8648 8.54573 20.8337 8.41735 20.7892 8.29344L20.7701 8.24317L20.7612 8.20924C20.7503 8.17288 20.7362 8.1387 20.7157 8.09716L20.6876 8.04316L20.6499 7.97413L20.6363 7.95004C20.6094 7.90412 20.5844 7.8713 20.549 7.84194L20.5447 7.83853L20.4141 7.69125L20.3807 7.65166C20.3261 7.58576 20.2671 7.53368 20.1744 7.46318C20.1631 7.45457 20.1522 7.44667 20.1411 7.43897L20.1062 7.41596L20.0651 7.39109L19.949 7.32423L19.9273 7.31085C19.8551 7.26612 19.7793 7.23068 19.7 7.20445C19.5449 7.15121 19.3858 7.13024 19.1783 7.12755L19.0946 7.12736L18.806 7.13064L18.7032 7.13032L18.6192 7.12967L18.2093 7.13052L18.1053 7.13257L18.0766 7.13226L18.0272 7.12956L17.9782 7.12808L17.6063 7.13045L17.5527 7.12994L17.5076 7.13131L17.4466 7.13384L17.4162 7.13414L17.3927 7.13301L17.3593 7.1285L17.3469 7.12756L17.3279 7.12735C17.3162 7.12771 17.3059 7.1291 17.2935 7.1316L17.2775 7.13528L17.2605 7.13227C17.2305 7.12806 17.2013 7.12778 17.1596 7.1298L17.0941 7.13315C17.0896 7.13325 17.0856 7.13328 17.0819 7.13324L17.0632 7.13208L17.0358 7.12795C17.0162 7.12635 16.9978 7.12846 16.9802 7.13316L16.9685 7.13703L16.9551 7.13329C16.9142 7.12395 16.8719 7.1237 16.8311 7.13253L16.814 7.13703L16.8247 7.1406C16.784 7.12405 16.7335 7.12066 16.6857 7.13283C16.677 7.13527 16.6684 7.1364 16.6545 7.13635L16.6108 7.13419L16.5833 7.13243C16.5489 7.13055 16.5232 7.13059 16.4973 7.13371L16.4871 7.13528L16.4711 7.13101C16.4666 7.13003 16.462 7.12919 16.4566 7.12837C16.433 7.12476 16.4089 7.12507 16.3844 7.13065L16.3661 7.13585C16.3644 7.1364 16.3623 7.13682 16.3592 7.13704L16.347 7.13712L16.2827 7.13183C16.249 7.12915 16.2228 7.12862 16.1975 7.13141L16.1794 7.1341L16.1613 7.13009C16.137 7.12594 16.1122 7.12528 16.0878 7.12815L16.0669 7.13161L15.9466 7.13229L15.9135 7.13178L15.8374 7.12757C15.8318 7.12735 15.8261 7.12717 15.8203 7.12704L15.7816 7.12677L15.6955 7.12787L15.6502 7.12753L15.6183 7.12675L15.5508 7.12603L15.342 7.12752L15.157 7.12778L15.0234 7.13071L14.9887 7.13075L14.9038 7.12771C14.8969 7.12758 14.8897 7.1275 14.8821 7.12748L14.7828 7.12847L14.7322 7.12786C14.7109 7.12706 14.691 7.12656 14.6702 7.12634L14.586 7.12678L14.3575 7.13192L11.1908 7.1333L10.4907 7.13128L9.75031 7.13337C9.47364 7.13361 9.19689 7.1336 8.92015 7.13335L8.12117 7.13201L7.33496 7.13221L7.1909 7.13095L7.08332 7.1288L6.95749 7.12861L6.8514 7.12572L6.76051 7.12531L6.63173 7.12678L6.45019 7.1266L6.30669 7.13148L6.26389 7.13121L6.20743 7.12728L6.15684 7.12541L6.11996 7.12532L5.94696 7.12814L5.74603 7.12732L5.68268 7.128L5.56381 7.13266C5.5474 7.13306 5.53402 7.13279 5.52256 7.13181L5.51168 7.13058C5.47924 7.12596 5.44802 7.12422 5.41106 7.12435L5.30245 7.12709L5.27178 7.12676L5.224 7.12517L5.13692 7.12373C5.09566 7.12362 5.05729 7.12445 5.01934 7.12635L4.9894 7.12667L4.89869 7.12331C4.86167 7.12249 4.83365 7.1235 4.80534 7.12746ZM4.89644 7.41628L4.95878 7.41876C4.97805 7.41952 4.99467 7.41984 5.01059 7.41962L5.03421 7.41888C5.07803 7.41669 5.12358 7.41615 5.17605 7.41704L5.27467 7.41987L5.30287 7.42002L5.38953 7.41759C5.41772 7.41689 5.4386 7.41725 5.45664 7.41897L5.4697 7.42051C5.49123 7.42358 5.51268 7.42516 5.53555 7.42561L5.58197 7.42515L5.66177 7.42149L5.68867 7.42084L5.747 7.42022L5.94855 7.42104L6.13529 7.41817L6.17719 7.41902L6.24893 7.4238C6.25489 7.42407 6.26087 7.42427 6.26699 7.42441L6.30602 7.42447L6.35281 7.42314L6.45499 7.41947L6.76146 7.41821L6.81915 7.41822L6.89284 7.41997L6.92258 7.42094L6.9657 7.42159L7.08001 7.42168L7.2541 7.42468L7.33318 7.4251L8.121 7.42491L8.91964 7.42625L9.33523 7.42644L10.539 7.42415L11.1903 7.4262L14.3652 7.42475L14.4208 7.42381L14.5669 7.4201L14.6262 7.4192L14.6658 7.41923L14.7503 7.4213L14.8723 7.42038L14.9018 7.42065L14.964 7.42324L15.0229 7.42365L15.1895 7.42037L15.3435 7.42042L15.514 7.41894L15.5815 7.41914L15.6772 7.42083L15.7961 7.41968L15.824 7.42021L15.89 7.42406L15.9339 7.42512L16.0838 7.42445L16.1074 7.42458L16.117 7.42144L16.1259 7.42442C16.1521 7.43145 16.1796 7.43284 16.2066 7.4283L16.228 7.42332L16.2377 7.42273L16.2544 7.42346L16.3114 7.42843C16.3541 7.43164 16.3864 7.43118 16.4198 7.42443L16.4259 7.4229L16.4389 7.42618L16.4452 7.42742C16.4642 7.43095 16.4835 7.43203 16.5034 7.42971L16.5237 7.42622C16.527 7.42547 16.5305 7.42493 16.5348 7.4246L16.5506 7.42429L16.6184 7.42819C16.6615 7.43058 16.6921 7.43011 16.7237 7.42461L16.7412 7.42085L16.745 7.42212C16.7892 7.43372 16.8332 7.43417 16.875 7.42416L16.8911 7.41924L16.9141 7.42551C16.9498 7.43316 16.9868 7.43344 17.0227 7.42628L17.0334 7.42349L17.0408 7.42445C17.0648 7.42668 17.0894 7.42672 17.1203 7.42532L17.1695 7.42259L17.1972 7.42166L17.2162 7.42227C17.2188 7.4225 17.2212 7.4228 17.2235 7.42316L17.2539 7.42887C17.2763 7.43182 17.2953 7.43054 17.318 7.42622L17.3391 7.42158L17.3607 7.42437C17.3865 7.42703 17.4122 7.42766 17.4454 7.4269L17.5545 7.42285L17.6364 7.42341L17.9337 7.42097L17.9714 7.42095L18.0119 7.42208L18.0655 7.42499C18.0712 7.42518 18.077 7.42531 18.083 7.4254L18.1226 7.42534L18.2297 7.4232L18.6178 7.42256L18.7811 7.42364L19.0962 7.42026L19.1212 7.42015C19.3274 7.41966 19.4716 7.43598 19.605 7.48177C19.6637 7.5012 19.7184 7.52677 19.7696 7.55846L19.8152 7.58614L19.9106 7.64078L19.9441 7.66091L19.9709 7.6784L19.9948 7.69565L20.0464 7.73599C20.085 7.76733 20.1137 7.79372 20.1382 7.82101L20.2014 7.89525L20.3323 8.04241L20.3558 8.06376C20.361 8.06754 20.3669 8.07449 20.3755 8.08824L20.3907 8.11442L20.4259 8.17881L20.4488 8.2228C20.4682 8.26194 20.4779 8.28826 20.4843 8.31724L20.4913 8.33992C20.5463 8.47729 20.5813 8.6218 20.5954 8.76908L20.6171 9.05389L20.6214 9.0987L20.6287 9.16247C20.6424 9.27072 20.651 9.38439 20.6573 9.52368L20.66 9.54306C20.6619 9.555 20.664 9.56514 20.6665 9.57431L20.669 9.58318L20.6738 9.61107L20.6811 9.66951L20.6869 9.7399L20.6994 9.95364L20.7315 10.4092L20.748 10.6038L20.7611 10.7438L20.7698 10.8265L20.7831 10.9391L20.7927 11.0093L20.8086 11.1116L20.8377 11.2766L20.8596 11.3904C20.8614 11.3991 20.8632 11.4079 20.8651 11.4166C20.8951 11.5915 20.9356 11.7699 20.9854 11.9459C21.0368 12.1233 21.1016 12.2958 21.1793 12.4625L21.2273 12.5616L21.298 12.6965L21.3778 12.8467L21.4012 12.8928L21.4202 12.9285L21.4416 12.9662L21.5461 13.1393L21.5778 13.1941C21.589 13.2125 21.6006 13.2288 21.6163 13.2482L21.6481 13.2863L21.5146 13.283C21.4461 13.2822 21.3995 13.2852 21.3451 13.2946C21.0506 13.3458 20.9045 13.5561 20.9634 13.8484L20.9785 13.9181C21.0376 14.1729 21.1376 14.4196 21.2769 14.6645L21.3182 14.7353L21.3142 14.7347C21.1722 14.7063 21.0537 14.7007 20.8741 14.713L20.7866 14.7199L20.6885 14.7292L20.5956 14.7389C20.4166 14.7587 20.2413 14.798 20.0719 14.856C20.0312 14.8696 19.9951 14.8842 19.9543 14.9035L19.9025 14.9293C19.8933 14.934 19.8838 14.939 19.8738 14.9443L19.7573 15.008C19.6718 15.053 19.5818 15.0938 19.4896 15.1291C19.3994 15.165 19.3047 15.1983 19.1925 15.234C19.1138 15.2581 19.0331 15.2794 18.9514 15.2976L18.7249 15.3453L18.6651 15.3566C18.6591 15.3576 18.6532 15.3585 18.6474 15.3595L18.6128 15.3645L18.5564 15.3746L18.4996 15.3833L18.4382 15.3913L18.3682 15.3992L18.1228 15.424C18.0321 15.4347 17.9417 15.4402 17.8513 15.4405C17.8251 15.4404 17.7978 15.4409 17.7686 15.442L17.6619 15.448L17.533 15.4575L17.5009 15.459L17.3374 15.4588L17.3078 15.4595C17.1506 15.4649 17.0034 15.4647 16.8627 15.4583C16.6456 15.4484 16.4457 15.4345 16.2549 15.4153L16.2055 15.4095L16.0637 15.3891L16.0095 15.3821C15.9929 15.3802 15.9776 15.3786 15.963 15.3774L15.9201 15.3748L15.9004 15.3741L15.8823 15.3691L15.8468 15.3604L15.8078 15.3528L15.7624 15.3455L15.6465 15.3291L15.6064 15.3221L15.4061 15.2816L15.3616 15.2718L15.3238 15.2624L15.2893 15.2526L15.2722 15.2473C15.2232 15.2316 15.1719 15.217 15.117 15.2028L15.0607 15.1887C15.0347 15.1824 15.0102 15.1755 14.9829 15.1666L14.9392 15.1516L14.888 15.1325L14.6647 15.0466L14.6173 15.0272L14.5779 15.0093L14.5431 14.9914L14.497 14.9654L14.4662 14.9493L14.4082 14.9208L14.3203 14.8785L14.2669 14.8508L14.2256 14.8279L14.1833 14.8029L14.1383 14.7749L14.0887 14.7428L14.0018 14.6843L13.8705 14.5942L13.8467 14.5774C13.7993 14.543 13.7526 14.5031 13.6952 14.4486L13.6393 14.3945L13.623 14.3753C13.6191 14.3709 13.6149 14.3664 13.6103 14.3615L13.5582 14.3076L13.5379 14.2847C13.5361 14.2825 13.5344 14.2804 13.5327 14.2782C13.4601 14.1984 13.4049 14.1252 13.3408 14.0217L13.3011 13.9556L13.2579 13.8805L13.1089 13.6108L13.0326 13.4774C13.0249 13.4638 13.0173 13.4501 13.0097 13.4364L12.9644 13.3534L12.9193 13.268L12.8739 13.1794L12.8039 13.038L12.7552 12.9367L12.7042 12.8284L12.6504 12.7122L12.5633 12.5209L12.3612 12.0738L12.2843 11.9082L12.1025 11.5292L12.0581 11.4397L12.0615 11.4498C12.0036 11.2635 11.9472 11.151 11.8377 11.0577L11.8135 11.0379C11.7366 10.973 11.6683 10.9262 11.5895 10.891L11.5618 10.8793C11.5337 10.8684 11.5039 10.8599 11.4734 10.8542L11.4546 10.8513L11.3955 10.8361C11.2801 10.8086 11.1623 10.7918 11.0438 10.786L10.983 10.7841L10.9942 10.7857C10.9596 10.7802 10.9275 10.7777 10.886 10.7765L10.7868 10.775L10.7465 10.7734L10.7091 10.7727L10.668 10.7733L10.5255 10.7789L10.4911 10.7796L10.422 10.782C10.3072 10.788 10.1937 10.8039 10.0824 10.8296L10.0335 10.8416L10.0548 10.8411C9.9363 10.8407 9.85089 10.8828 9.73717 10.9704L9.70475 10.9965C9.57814 11.1028 9.48881 11.2328 9.44187 11.3856L9.43546 11.4079L9.27488 11.731L9.14987 11.9805L9.04084 12.2088L9.00357 12.2846L8.97769 12.3352L8.74904 12.8056C8.62179 13.066 8.47808 13.3282 8.30517 13.6188L8.20788 13.7803C8.17444 13.8352 8.13995 13.8912 8.10435 13.9484C7.99515 14.1239 7.84353 14.2832 7.64296 14.4417C7.61072 14.4672 7.57824 14.4912 7.54326 14.5155L7.48863 14.5522C7.47912 14.5584 7.46938 14.5647 7.45938 14.571L7.39592 14.6104L7.32446 14.653L7.24328 14.7C7.1591 14.7479 7.07186 14.7913 6.98238 14.8296L6.87824 14.8731L6.76929 14.9163L6.73498 14.9297C6.63977 14.9681 6.5434 14.9991 6.44519 15.0232L6.39529 15.0356L6.27911 15.0666L6.23535 15.0771L6.2217 15.0801C6.09734 15.1065 5.98424 15.1278 5.87501 15.1451C5.76328 15.1627 5.65678 15.1762 5.55393 15.1854L5.31045 15.2035L5.24698 15.2092L5.1515 15.2196L5.11334 15.2225L5.07122 15.2243L4.99373 15.2257L4.83901 15.2264L4.77159 15.2279L4.71301 15.231C4.70652 15.2314 4.69996 15.2319 4.69325 15.2324C4.61841 15.2379 4.54231 15.2359 4.46695 15.2265C4.44606 15.224 4.42501 15.2219 4.40291 15.2203L4.32684 15.2161L4.1942 15.2114C4.0394 15.204 3.87947 15.1917 3.7114 15.1747L3.58187 15.1604L3.48654 15.1487L3.41323 15.1392L3.36831 15.1326L3.08848 15.0858C3.06668 15.0822 3.04683 15.0786 3.0285 15.0751L2.97763 15.0642C2.95406 15.0586 2.93294 15.0528 2.91286 15.0462L2.87579 15.0332L2.84126 15.0223L2.80185 15.0117L2.69097 14.9847L2.64967 14.9729L2.61782 14.9629L2.58115 14.9506L2.36504 14.8748C2.35588 14.8715 2.3472 14.8683 2.33894 14.8652L2.29393 14.8473C2.26669 14.8357 2.24441 14.8246 2.22367 14.8125L2.20835 14.8031C1.96625 14.6489 1.69375 14.5631 1.36686 14.5244L1.31275 14.5185L1.22831 14.5116L1.1297 14.5061L0.916306 14.497C0.866864 14.4946 0.823828 14.4983 0.763418 14.5084L0.679269 14.5234L0.716813 14.4786C0.753523 14.4398 0.786236 14.3897 0.818974 14.3254L0.913204 14.1312L0.95525 14.0412L0.978065 13.9894C0.981576 13.9811 0.984952 13.9731 0.98821 13.9651L1.00648 13.9187L1.02272 13.8732L1.03775 13.8266C1.10299 13.614 1.06956 13.4009 0.935192 13.223C0.900704 13.1772 0.852767 13.1426 0.797875 13.1241C0.705974 13.0897 0.603535 13.0723 0.500553 13.0744L0.404333 13.0756L0.34498 13.0756L0.376957 13.0434C0.382305 13.0381 0.387838 13.0328 0.393572 13.0272C0.446023 12.9768 0.472854 12.9323 0.509234 12.8482L0.534956 12.7874L0.54458 12.7661L0.553138 12.7492L0.649662 12.5655L0.747313 12.3757C0.842356 12.1913 0.921484 11.9993 0.983913 11.8018C1.03282 11.6515 1.06495 11.495 1.07934 11.3365L1.08371 11.2765L1.09163 11.1401L1.1033 10.9728L1.11535 10.8151C1.1174 10.7895 1.11948 10.7642 1.12158 10.7392L1.13461 10.592L1.14763 10.4593L1.20443 9.95356L1.21321 9.89114L1.24318 9.70652L1.26125 9.57695L1.27592 9.48776L1.32733 9.2129L1.33917 9.1462L1.34879 9.08754L1.35659 9.03397L1.36299 8.98258L1.36601 8.95389L1.37231 8.93363L1.37658 8.90909C1.40448 8.58665 1.45866 8.34307 1.56233 8.12438C1.59356 8.05851 1.63892 7.99521 1.7061 7.9208L1.75714 7.86545L1.81629 7.7969L1.84623 7.76339C1.87305 7.73455 1.89178 7.71856 1.91371 7.70489L1.93589 7.68796C2.01254 7.61702 2.1101 7.5676 2.2519 7.52258L2.2895 7.5105L2.35535 7.4883C2.38585 7.47758 2.41341 7.46717 2.44114 7.45585C2.48962 7.43606 2.53864 7.4271 2.61906 7.42348L2.67767 7.42181L3.2907 7.41967L4.43499 7.41967L4.51871 7.42062L4.58266 7.42189L4.63943 7.42129L4.71536 7.4201L4.74455 7.42061L4.76918 7.42213L4.80606 7.42612L4.8306 7.42054L4.84794 7.41757C4.85102 7.41722 4.85426 7.41692 4.85771 7.4167L4.88155 7.41606C4.88614 7.41606 4.89108 7.41615 4.89644 7.41628Z" fill="black"/>
<path fill-rule="evenodd" clip-rule="evenodd" d="M5.28166 8.81348C5.46252 8.81348 5.60913 8.96009 5.60913 9.14094V10.6443C5.60913 10.8252 5.46252 10.9718 5.28166 10.9718H0.695416C0.514562 10.9718 0.36795 10.8252 0.36795 10.6443V9.14094C0.36795 8.96009 0.514562 8.81348 0.695416 8.81348H5.28166ZM2.95619 9.56888C2.71795 9.56888 2.52481 9.76214 2.52481 10.0005C2.52481 10.2389 2.71795 10.4322 2.95619 10.4322C3.19443 10.4322 3.38756 10.2389 3.38756 10.0005C3.38756 9.76214 3.19443 9.56888 2.95619 9.56888Z" fill="#F9F154"/>
<path d="M5.24053 8.81348C5.51892 8.81348 5.74164 9.05187 5.75902 9.34799L5.76011 9.38529V10.6158C5.76011 10.9164 5.54852 11.1668 5.27502 11.1864L5.24053 11.1876H0.887531C0.609138 11.1876 0.386414 10.9492 0.369042 10.6531L0.36795 10.6158V9.38529C0.36795 9.08468 0.579538 8.83426 0.853033 8.81471L0.887531 8.81348H5.24053ZM5.24053 9.02931H0.887531C0.731888 9.02931 0.599171 9.16909 0.584905 9.35249L0.583637 9.38529V10.6158C0.583637 10.804 0.707706 10.9542 0.860322 10.9703L0.887531 10.9718H5.24053C5.39617 10.9718 5.52889 10.832 5.54315 10.6486L5.54442 10.6158V9.38529C5.54442 9.19709 5.42035 9.04685 5.26774 9.03074L5.24053 9.02931ZM2.94358 9.43371C3.25961 9.43371 3.50975 9.68979 3.50975 9.99973C3.50975 10.3097 3.25961 10.5657 2.94358 10.5657C2.62754 10.5657 2.3774 10.3097 2.3774 9.99973C2.3774 9.68979 2.62754 9.43371 2.94358 9.43371ZM2.94358 9.64954C2.75357 9.64954 2.59309 9.80366 2.59309 9.99973C2.59309 10.1958 2.75357 10.3499 2.94358 10.3499C3.13358 10.3499 3.29407 10.1958 3.29407 9.99973C3.29407 9.80366 3.13358 9.64954 2.94358 9.64954Z" fill="black"/>
</svg>
