<svg width="20" height="14" viewBox="0 0 20 14" fill="none" xmlns="http://www.w3.org/2000/svg">
<path d="M19.0157 10.641H19.0078L17.7134 3.9308C17.7134 3.92286 17.7134 3.92286 17.7055 3.91492C17.5065 2.81705 16.9285 1.82383 16.0723 1.1084C15.2161 0.392971 14.136 0.000710552 13.0203 0L6.03217 0.023823C4.9112 0.0220977 3.82563 0.416321 2.96699 1.13695C2.10834 1.85757 1.53178 2.85829 1.33903 3.96256V3.97845L0.0446455 10.633C-0.0215789 11.0028 -0.0140637 11.382 0.0667592 11.7489C0.147582 12.1158 0.300119 12.4631 0.515601 12.7708C0.731083 13.0785 1.00526 13.3406 1.32237 13.542C1.63949 13.7434 1.99328 13.8802 2.36342 13.9444C2.52558 13.9764 2.69049 13.9923 2.85576 13.9921C3.61398 13.9905 4.34122 13.691 4.88072 13.1583L4.91248 13.1185L8.14447 9.54509L10.9159 9.52921L14.1399 13.1265L14.1796 13.1662C14.7153 13.6999 15.4405 13.9998 16.1967 14C16.3645 13.9999 16.5321 13.9839 16.6969 13.9524C17.4425 13.8187 18.1049 13.3954 18.5394 12.7749C18.9739 12.1545 19.1451 11.3873 19.0157 10.641ZM7.62037 5.42371H6.98509V6.05899C6.98509 6.22748 6.91816 6.38906 6.79902 6.5082C6.67988 6.62734 6.51829 6.69427 6.34981 6.69427C6.18132 6.69427 6.01973 6.62734 5.9006 6.5082C5.78146 6.38906 5.71453 6.22748 5.71453 6.05899V5.42371H5.07925C4.91076 5.42371 4.74917 5.35678 4.63003 5.23764C4.5109 5.1185 4.44396 4.95692 4.44396 4.78843C4.44396 4.61994 4.5109 4.45836 4.63003 4.33922C4.74917 4.22008 4.91076 4.15315 5.07925 4.15315H5.71453V3.51787C5.71453 3.34938 5.78146 3.18779 5.9006 3.06866C6.01973 2.94952 6.18132 2.88259 6.34981 2.88259C6.51829 2.88259 6.67988 2.94952 6.79902 3.06866C6.91816 3.18779 6.98509 3.34938 6.98509 3.51787V4.15315H7.62037C7.78886 4.15315 7.95044 4.22008 8.06958 4.33922C8.18872 4.45836 8.25565 4.61994 8.25565 4.78843C8.25565 4.95692 8.18872 5.1185 8.06958 5.23764C7.95044 5.35678 7.78886 5.42371 7.62037 5.42371ZM10.7968 4.78843C10.7968 4.61994 10.8637 4.45836 10.9828 4.33922C11.102 4.22008 11.2636 4.15315 11.4321 4.15315H13.9732C14.1417 4.15315 14.3033 4.22008 14.4224 4.33922C14.5415 4.45836 14.6085 4.61994 14.6085 4.78843C14.6085 4.95692 14.5415 5.1185 14.4224 5.23764C14.3033 5.35678 14.1417 5.42371 13.9732 5.42371H11.4321C11.2636 5.42371 11.102 5.35678 10.9828 5.23764C10.8637 5.1185 10.7968 4.95692 10.7968 4.78843ZM16.4746 12.7056C16.2256 12.7493 15.9697 12.7332 15.7281 12.6587C15.4865 12.5841 15.266 12.4532 15.0849 12.2768L12.6153 9.53715H13.0203C13.8307 9.53793 14.628 9.33196 15.3367 8.93872C16.0453 8.54548 16.642 7.97796 17.0702 7.28985L17.761 10.8792C17.8303 11.2917 17.7341 11.7149 17.4932 12.0568C17.2524 12.3988 16.8863 12.6319 16.4746 12.7056Z" fill="black"/>
</svg>
