<svg width="23" height="23" viewBox="0 0 23 23" fill="none" xmlns="http://www.w3.org/2000/svg">
<g clip-path="url(#clip0_701_7530)">
<path d="M22.9873 11.7151C22.9873 10.7728 22.909 10.0852 22.7397 9.37207H11.7285V13.6251H18.1918C18.0616 14.6821 17.3579 16.2738 15.7942 17.3434L15.7722 17.4858L19.2538 20.1214L19.495 20.1449C21.7102 18.1457 22.9873 15.2041 22.9873 11.7151Z" fill="#4285F4"/>
<path d="M11.7289 22.9214C14.8954 22.9214 17.5537 21.9026 19.4954 20.1454L15.7945 17.3439C14.8042 18.0188 13.475 18.4899 11.7289 18.4899C8.62754 18.4899 5.9953 16.4908 5.05698 13.7275L4.91945 13.739L1.2993 16.4767L1.25195 16.6053C3.18052 20.3491 7.14195 22.9214 11.7289 22.9214Z" fill="#34A853"/>
<path d="M5.05793 13.7267C4.81034 13.0136 4.66706 12.2495 4.66706 11.46C4.66706 10.6705 4.81034 9.9065 5.0449 9.19341L5.03834 9.04154L1.37283 6.25977L1.2529 6.31551C0.458043 7.86906 0.00195312 9.61364 0.00195312 11.46C0.00195312 13.3065 0.458043 15.0509 1.2529 16.6045L5.05793 13.7267Z" fill="#FBBC05"/>
<path d="M11.7289 4.43136C13.9311 4.43136 15.4166 5.36093 16.2637 6.13775L19.5735 2.97973C17.5407 1.13332 14.8954 0 11.7289 0C7.14195 0 3.18052 2.57222 1.25195 6.31596L5.04396 9.19385C5.99531 6.4306 8.62755 4.43136 11.7289 4.43136Z" fill="#EB4335"/>
</g>
<defs>
<clipPath id="clip0_701_7530">
<rect width="23" height="23" fill="white"/>
</clipPath>
</defs>
</svg>
