<svg width="256" height="224" viewBox="0 0 256 224" fill="none" xmlns="http://www.w3.org/2000/svg">
<path d="M19.6887 118.647H18.2989V126.084H9.03366V134.219H0V143.05H1.38979V135.613H10.4235V127.479H19.6887V118.647Z" fill="#1E1A15"/>
<path d="M201.52 181.166C205.998 181.166 209.627 177.524 209.627 173.032C209.627 168.539 205.998 164.897 201.52 164.897C197.043 164.897 193.413 168.539 193.413 173.032C193.413 177.524 197.043 181.166 201.52 181.166Z" fill="#34A853"/>
<path d="M201.52 181.863C196.656 181.863 192.718 177.912 192.718 173.032C192.718 168.151 196.656 164.2 201.52 164.2C206.384 164.2 210.322 168.151 210.322 173.032C210.322 177.912 206.361 181.863 201.52 181.863ZM201.52 165.595C197.443 165.595 194.108 168.941 194.108 173.032C194.108 177.122 197.443 180.469 201.52 180.469C205.597 180.469 208.932 177.122 208.932 173.032C208.932 168.941 205.597 165.595 201.52 165.595Z" fill="#1E1A15"/>
<path d="M195.729 171.753C189.545 171.753 184.495 166.687 184.495 160.481C184.495 154.276 189.545 149.209 195.729 149.209C201.914 149.209 206.963 154.276 206.963 160.481C206.963 166.687 201.914 171.753 195.729 171.753ZM195.729 150.604C190.309 150.604 185.885 155.043 185.885 160.481C185.885 165.92 190.309 170.359 195.729 170.359C201.149 170.359 205.574 165.92 205.574 160.481C205.574 155.043 201.149 150.604 195.729 150.604Z" fill="#1E1A15"/>
<path d="M236.728 86.9226H252.479L244.604 73.2799L236.728 86.9226Z" fill="#4385F5"/>
<path d="M253.684 87.6198H235.524L244.604 71.8854L253.684 87.6198ZM237.933 86.2254H251.275L244.604 74.6744L237.933 86.2254Z" fill="#1E1A15"/>
<path d="M256 80.8799H233.207L244.604 61.1247L256 80.8799ZM235.616 79.4854H253.591L244.604 63.9137L235.616 79.4854Z" fill="#1E1A15"/>
<path d="M76.5545 0.69724H56.4025V6.27516H76.5545V0.69724Z" fill="#EA4235"/>
<path d="M77.2494 6.9724H55.7076V0H77.2494V6.9724ZM57.0974 5.57792H75.8596V1.39448H57.0974V5.57792Z" fill="#1E1A15"/>
<path d="M30.3438 64.2623L24.2982 47.2729C27.4716 45.7157 29.6489 42.4619 29.6489 38.6968C29.6489 33.4443 25.3869 29.1679 20.152 29.1679C14.9171 29.1679 10.6551 33.4443 10.6551 38.6968C10.6551 42.4619 12.8324 45.7157 16.0058 47.2729L9.96019 64.2623H30.3438Z" fill="#1E1A15"/>
<path d="M188.201 59.8464C188.201 59.8464 209.905 53.4086 208.353 38.9525C207.288 29.0284 200.594 27.1691 188.201 24.5196C180.743 22.916 175.763 15.4322 165.733 5.97302C155.703 -3.4862 149.403 2.44034 149.403 2.44034C149.403 2.44034 130.872 -1.04586 141.296 38.4644L188.201 59.8464Z" fill="#1E1A15"/>
<path d="M148.916 47.0172V25.7979C148.916 25.7979 140.462 24.6358 143.913 9.20357L150.839 6.11247C150.839 6.11247 156.213 15.3625 164.297 20.3827V48.1561L148.916 47.0172Z" fill="white"/>
<path d="M164.992 48.923L148.221 47.668V26.3557C147.341 26.0768 145.674 25.3563 144.353 23.4273C142.176 20.2897 141.805 15.4555 143.241 9.06412L143.311 8.7155L151.117 5.2293L151.441 5.76385C151.488 5.85682 156.838 14.9209 164.667 19.8016L164.992 20.0108V48.923ZM149.611 46.3665L163.602 47.4123V20.801C156.676 16.3619 151.835 9.06412 150.561 7.04212L144.515 9.73812C143.288 15.4787 143.612 19.9411 145.488 22.6603C146.994 24.845 148.986 25.1471 149.009 25.1471L149.611 25.2401V46.3665Z" fill="#1E1A15"/>
<path d="M167.725 93.1513L83.874 90.9898C81.2103 90.9201 78.5697 91.5476 76.2765 92.9189C71.0416 96.0332 65.5288 103.982 75.2805 124.225C75.2805 124.225 106.759 191.695 107.755 191.695C108.751 191.695 126.054 184.722 126.054 184.722L104.003 119.182L160.266 121.994L167.725 93.1513Z" fill="white"/>
<path d="M107.802 192.369C107.223 192.369 107.014 192.369 101.687 181.445C98.9533 175.844 95.2009 168.035 90.5682 158.25C82.6696 141.563 74.7709 124.667 74.7014 124.504C70.3004 115.393 68.5631 107.817 69.5128 102.029C70.2077 97.7531 72.4546 94.4063 75.9522 92.3146C78.3149 90.9201 81.0713 90.2229 83.9204 90.2926L168.628 92.4773L160.822 122.714L105.022 119.925L126.958 185.117L126.355 185.35C121.121 187.465 108.821 192.369 107.802 192.369ZM83.5034 91.6638C81.0481 91.6638 78.6855 92.2913 76.6471 93.4999C73.4506 95.4057 71.5049 98.3341 70.8563 102.239C69.9529 107.747 71.6439 115.021 75.9291 123.876C87.7655 149.256 105.694 187.186 108.056 190.904C110.025 190.347 119.152 186.744 125.22 184.304L103.053 118.415L159.757 121.25L166.822 93.8253L83.8509 91.6871C83.7582 91.6638 83.6193 91.6638 83.5034 91.6638Z" fill="#1E1A15"/>
<path d="M166.127 97.3812C166.127 97.3812 173.354 128.827 144.631 129.64L87.1864 122.784C87.1864 122.784 45.7705 196.575 44.3576 195.971C42.9446 195.367 28.8382 188.766 28.8382 187.953C28.8382 187.139 55.7539 126.177 65.6909 106.05C68.3547 100.635 73.5664 96.9164 88.2056 97.3812H126.124L132.864 89.944L166.127 97.3812Z" fill="white"/>
<path d="M44.3576 196.668C44.2649 196.668 44.1491 196.645 44.0565 196.598C43.2921 196.273 39.3543 194.437 35.7409 192.647C28.1202 188.882 28.1202 188.487 28.1202 187.929C28.1202 187.72 28.1202 187.488 32.5443 177.355C35.3934 170.847 39.0532 162.527 42.8983 153.951C47.5541 143.538 59.0199 117.973 65.0655 105.725C66.6638 102.494 68.9106 100.31 72.1766 98.8454C75.9754 97.1488 81.2103 96.4283 88.2287 96.6607H125.823L132.633 89.1538L166.683 96.8002L166.775 97.2185C166.914 97.846 170.227 112.674 162.745 122.366C158.853 127.409 152.761 130.082 144.608 130.314H144.515L87.5338 123.528C85.9587 126.34 76.4387 143.283 66.8722 159.947C60.7571 170.615 55.8234 179.098 52.2099 185.14C50.0557 188.743 48.3648 191.509 47.1603 193.368C46.5118 194.391 45.979 195.158 45.6084 195.646C45.2378 196.157 44.844 196.668 44.3576 196.668ZM29.5794 187.79C31.2935 189.092 41.5548 193.972 44.2186 195.158C47.3225 191.555 70.9953 150.139 86.5378 122.435L86.7694 122.04L87.2327 122.087L144.654 128.943C152.321 128.711 158.066 126.224 161.679 121.529C168.072 113.232 166.011 100.449 165.548 97.9622L133.073 90.7109L126.402 98.0784H88.1592C72.7557 97.5904 68.54 101.774 66.27 106.352C56.8889 125.41 31.502 182.677 29.5794 187.79Z" fill="#1E1A15"/>
<path d="M97.4014 171.265C97.4014 171.265 109.608 170.661 118.41 161.039L134.856 205.546C134.856 205.546 124.109 218.027 110.952 224L114.334 208.196L97.4014 171.265Z" fill="#1E1A15"/>
<path d="M116.952 210.332L113.103 212.057L113.67 213.33L117.519 211.605L116.952 210.332Z" fill="white"/>
<path d="M118.697 205.866L114.023 207.843L114.562 209.128L119.237 207.151L118.697 205.866Z" fill="white"/>
<path d="M118.037 201.567L112.501 204.118L113.08 205.385L118.617 202.835L118.037 201.567Z" fill="white"/>
<path d="M113.199 205.779L112.133 204.547C111.67 203.989 107.57 199.109 107.941 195.831C108.033 194.948 108.427 194.274 109.122 193.763L109.191 193.717C109.655 193.438 110.697 193.159 111.647 193.763C113.384 194.879 113.94 198.272 113.361 204.152L113.199 205.779ZM109.91 194.925C109.585 195.181 109.4 195.529 109.33 195.994C109.122 197.737 110.79 200.48 112.11 202.269C112.457 196.668 111.415 195.297 110.906 194.972C110.489 194.669 110.025 194.855 109.91 194.925Z" fill="white"/>
<path d="M113.5 205.593L111.925 205.221C111.6 205.151 103.771 203.199 101.849 199.736C101.362 198.853 101.27 197.946 101.571 197.017L101.594 196.947C101.617 196.877 102.289 195.436 103.91 195.343C106.296 195.204 109.238 198.202 112.689 204.198L113.5 205.593ZM102.868 197.458C102.706 197.993 102.775 198.504 103.053 199.016C104.142 200.968 108.01 202.548 110.581 203.362C106.829 197.272 104.721 196.668 103.957 196.715C103.285 196.761 102.937 197.342 102.868 197.458Z" fill="#1E1A15"/>
<path d="M41.1379 158.157C41.1379 158.157 49.5461 167.059 62.5639 167.477L39.6554 209.009C39.6554 209.009 23.2096 208.986 10.1223 202.85L24.2519 195.111L41.1379 158.157Z" fill="#1E1A15"/>
<path d="M20.6106 196.772L19.8903 197.965L23.3569 200.073L24.0772 198.88L20.6106 196.772Z" fill="white"/>
<path d="M24.3723 194.638L23.7485 195.884L28.2401 198.148L28.864 196.902L24.3723 194.638Z" fill="white"/>
<path d="M26.1473 191.277L25.5676 192.545L31.1046 195.094L31.6842 193.827L26.1473 191.277Z" fill="white"/>
<path d="M25.3637 192.671L25.5954 191.067C25.7112 190.347 26.7304 184.048 29.4636 182.189C30.1817 181.701 30.9692 181.538 31.7799 181.724L31.8494 181.747C32.359 181.933 33.2624 182.514 33.4245 183.653C33.7025 185.698 31.502 188.348 26.684 191.718L25.3637 192.671ZM31.1314 183.049C30.8303 183.049 30.5523 183.142 30.2512 183.351C28.8151 184.327 27.819 187.395 27.3094 189.58C31.7568 186.186 32.1274 184.49 32.0347 183.885C31.9653 183.374 31.5252 183.142 31.4093 183.095C31.3167 183.072 31.224 183.049 31.1314 183.049Z" fill="white"/>
<path d="M25.7112 192.787L24.97 191.346C24.8078 191.044 21.1712 183.839 22.561 180.097C22.9084 179.144 23.5338 178.47 24.4372 178.098L24.5067 178.075C24.5762 178.052 26.105 177.61 27.2168 178.796C28.8614 180.515 28.5371 184.722 26.2671 191.253L25.7112 192.787ZM24.9005 179.4C24.3909 179.632 24.0434 180.004 23.8581 180.562C23.0937 182.654 24.414 186.628 25.4795 189.138C27.6337 182.328 26.7304 180.33 26.1976 179.772C25.7112 179.26 25.0394 179.377 24.9005 179.4Z" fill="#1E1A15"/>
<path d="M194.988 69.5148L192.301 54.8031C191.537 50.5034 188.919 46.7383 185.12 44.5769L164.575 32.7703C164.575 32.7703 148.245 44.2747 148.708 31.492L142.199 33.1189C136.339 34.4901 131.081 37.6974 127.189 42.2992L118.827 52.1768L132.818 66.0054L128.185 93.895L167.123 108.072L170.25 92.8491L178.704 70.8861L194.988 69.5148Z" fill="#4385F5"/>
<path d="M167.655 109.002L127.421 94.3598L132.1 66.261L117.901 52.2233L126.68 41.8344C130.641 37.1629 136.107 33.8161 142.06 32.4217L149.449 30.5856L149.426 31.5152C149.333 34.0718 149.936 35.6987 151.21 36.3959C154.452 38.1623 161.679 33.9556 164.204 32.1892L164.575 31.9336L185.514 43.9494C189.498 46.227 192.232 50.1316 193.019 54.6636L195.822 70.1191L179.237 71.5136L170.968 93.0118L167.655 109.002ZM128.973 93.4302L166.613 107.143L169.601 92.6632L169.624 92.6167L178.241 70.2353L194.177 68.8873L191.629 54.9193C190.911 50.8056 188.41 47.2496 184.796 45.1579L164.621 33.5837C163.115 34.5831 157.44 38.2088 153.109 38.2088C152.159 38.2088 151.279 38.0461 150.538 37.6277C148.94 36.7678 148.106 35.0014 148.013 32.3752L142.384 33.7697C136.709 35.0944 131.498 38.2785 127.722 42.7176L119.777 52.1071L133.559 65.7265L128.973 93.4302Z" fill="#1E1A15"/>
<path d="M95.5483 54.6171C95.5483 54.6171 92.6297 78.3233 98.3279 82.7392C103.424 86.6902 116.395 84.1336 132.378 63.2164L119.175 51.8282L110.141 61.3571L95.5483 54.6171Z" fill="white"/>
<path d="M103.493 84.9936C101.27 84.9936 99.3702 84.4125 97.911 83.297C95.363 81.3214 94.089 75.8597 94.1122 67.028C94.1353 60.5902 94.8534 54.5939 94.8534 54.5474L94.9692 53.5945L109.979 60.5204L119.128 50.8753L133.328 63.1235L132.934 63.658C119.916 80.6939 110.048 84.2731 105.323 84.9006C104.698 84.9471 104.072 84.9936 103.493 84.9936ZM96.1506 55.663C95.3862 62.7748 94.5523 78.9276 98.768 82.2046C100.32 83.3899 102.52 83.8547 105.138 83.5061C109.608 82.9251 118.92 79.5086 131.428 63.3326L119.221 52.8043L110.303 62.2171L96.1506 55.663Z" fill="#1E1A15"/>
<path d="M63.6062 38.4412L56.3098 51.9676L60.317 54.1523L62.1006 50.852L65.7372 52.8276L63.9537 56.1278L66.8722 57.7082L68.6558 54.408L72.2924 56.3835L70.5089 59.6837L74.3308 61.7522L81.6272 48.2258L63.6062 38.4412Z" fill="#FCBC03"/>
<path d="M74.6087 62.7051L69.5592 59.9626L71.3427 56.6624L68.9338 55.3376L67.1502 58.6379L63.004 56.3835L64.7876 53.0832L62.3786 51.7585L60.595 55.0587L55.3601 52.2233L63.3051 37.465L82.5537 47.9236L74.6087 62.7051ZM71.4585 59.4049L74.0528 60.8226L80.6775 48.5279L63.8842 39.3941L57.2595 51.6887L60.0391 53.1994L61.8227 49.8992L66.6869 52.5487L64.9034 55.8489L66.5943 56.7553L68.3778 53.4551L73.2421 56.1046L71.4585 59.4049Z" fill="#1E1A15"/>
<path d="M89.5259 47.1799C89.5259 47.1799 87.6728 43.6937 90.2208 43.2289C92.7687 42.7641 96.7065 48.1096 97.1697 51.3633L89.5259 47.1799Z" fill="white"/>
<path d="M98.0731 52.6416L89.0394 47.6912L88.9468 47.5053C88.831 47.2729 87.7423 45.1812 88.4604 43.7169C88.6688 43.2754 89.1321 42.7176 90.1281 42.5316C90.9851 42.3689 91.9348 42.6711 92.9772 43.4148C95.2472 45.0417 97.5403 48.7138 97.8878 51.2471L98.0731 52.6416ZM90.0586 46.6686L96.081 49.9689C95.3167 47.9701 93.6952 45.6925 92.1433 44.5536C91.4484 44.0423 90.823 43.8332 90.3597 43.9029C89.8965 43.9958 89.7575 44.1818 89.688 44.3212C89.41 44.9023 89.7807 46.0643 90.0586 46.6686Z" fill="#1E1A15"/>
<path d="M63.1597 31.3029L59.8201 37.4177L129.559 75.7635L132.898 69.6488L63.1597 31.3029Z" fill="#FCBC03"/>
<path d="M129.83 76.7196L58.8809 37.6974L62.8882 30.3532L133.837 69.3754L129.83 76.7196ZM60.7571 37.1629L129.274 74.8371L131.938 69.9564L63.4209 32.259L60.7571 37.1629Z" fill="#1E1A15"/>
<path d="M133.999 99.7053C123.228 93.7788 119.267 80.1826 125.174 69.3986C131.081 58.5914 144.631 54.6171 155.379 60.5437C166.15 66.4702 170.111 80.0664 164.204 90.8504C158.321 101.658 144.77 105.632 133.999 99.7053ZM150.932 68.7014C144.654 65.2384 136.733 67.5626 133.304 73.861C129.853 80.1594 132.169 88.1079 138.447 91.5476C144.724 95.0106 152.646 92.6864 156.074 86.388C159.525 80.0896 157.209 72.1411 150.932 68.7014Z" fill="#FCBC03"/>
<path d="M144.654 103.145C140.856 103.145 137.103 102.192 133.675 100.31C128.301 97.3579 124.41 92.4773 122.672 86.574C120.958 80.6707 121.63 74.442 124.572 69.05C130.664 57.9174 144.631 53.8269 155.726 59.9162C166.822 66.0286 170.898 80.0432 164.83 91.1758C161.888 96.5677 157.024 100.472 151.14 102.215C148.986 102.843 146.809 103.145 144.654 103.145ZM144.724 58.4984C137.103 58.4984 129.691 62.5657 125.776 69.724C123.02 74.7906 122.371 80.6242 123.993 86.1789C125.614 91.7335 129.274 96.3121 134.324 99.1011C139.373 101.867 145.187 102.518 150.723 100.891C156.259 99.2637 160.822 95.5916 163.602 90.525C169.323 80.0664 165.478 66.8886 155.055 61.148C151.789 59.3584 148.221 58.4984 144.724 58.4984ZM144.654 93.8485C142.384 93.8485 140.138 93.2675 138.099 92.1519C134.903 90.3856 132.563 87.4804 131.544 83.9477C130.525 80.415 130.919 76.7196 132.679 73.4891C136.316 66.8421 144.631 64.4017 151.256 68.0506C157.881 71.6995 160.313 80.0432 156.676 86.6902C154.916 89.8975 152.02 92.2449 148.499 93.2675C147.249 93.6626 145.951 93.8485 144.654 93.8485ZM144.724 67.795C140.369 67.795 136.153 70.1191 133.93 74.2096C132.355 77.0915 131.984 80.4383 132.911 83.5991C133.837 86.7599 135.922 89.3862 138.794 90.9666C141.666 92.547 145.002 92.9189 148.152 91.9892C151.302 91.0595 153.92 88.9678 155.495 86.0859C158.761 80.1129 156.56 72.6059 150.63 69.3289C148.731 68.283 146.716 67.795 144.724 67.795Z" fill="#1E1A15"/>
<path d="M175.346 70.7699L178.473 91.5709L159.016 78.5557C159.016 78.5557 150.19 72.513 148.129 81.5771C148.129 81.5771 144.4 83.204 145.813 86.6902C145.813 86.6902 141.991 87.8522 143.311 93.0815C143.311 93.0815 145.813 93.5464 149.403 92.3146C149.403 92.3146 153.92 93.4302 156.004 99.4729C156.004 99.4729 182.619 118.298 193.76 108.072C193.76 108.072 198.602 105.283 197.235 90.1764L194.803 68.9106L175.346 70.7699Z" fill="white"/>
<path d="M184.935 111.837C180.905 111.837 176.064 110.652 170.458 108.258C162.444 104.842 155.703 100.1 155.634 100.054L155.448 99.9145L155.379 99.7053C153.665 94.7549 150.26 93.3372 149.449 93.0583C145.836 94.2436 143.334 93.7788 143.241 93.7788L142.801 93.6858L142.685 93.2442C141.574 88.8516 143.82 86.9691 145.002 86.3183C144.284 83.6223 146.183 81.8327 147.573 81.089C148.221 78.5789 149.426 76.9521 151.21 76.2548C154.8 74.8371 159.247 77.8352 159.456 77.9747L177.592 90.1067L174.581 70.1423L195.451 68.1436L197.953 90.0834C199.273 104.609 194.895 108.165 194.224 108.607C191.838 110.768 188.757 111.837 184.935 111.837ZM156.607 99.0313C158.946 100.635 183.175 116.857 193.32 107.561L193.367 107.514L193.436 107.468C193.482 107.445 197.86 104.54 196.563 90.2461L194.201 69.6775L176.156 71.3974L179.399 93.0351L158.645 79.1367C158.599 79.1135 154.591 76.4175 151.696 77.5563C150.306 78.1141 149.333 79.5086 148.824 81.7165L148.754 82.0652L148.43 82.2046C148.106 82.3441 145.372 83.6688 146.484 86.4113L146.762 87.1085L146.044 87.3409C145.928 87.3874 143.102 88.3403 143.913 92.4308C144.747 92.5005 146.693 92.5005 149.194 91.6638L149.38 91.5941L149.565 91.6406C149.773 91.6871 154.383 92.8956 156.607 99.0313Z" fill="#1E1A15"/>
<path d="M152.507 88.3171C152.484 88.2938 149.264 86.2021 146.415 87.2247L145.951 85.9C149.472 84.6449 153.132 87.0388 153.294 87.1318L152.507 88.3171Z" fill="#1E1A15"/>
<path d="M155.472 84.3661C155.333 84.2266 152.252 80.7869 148.36 82.2278L147.874 80.9263C152.669 79.16 156.352 83.2737 156.514 83.4364L155.472 84.3661Z" fill="#1E1A15"/>
<path d="M107.477 63.1002C107.084 63.9834 105.393 66.1216 103.887 61.6593C103.887 61.6593 100.366 65.68 98.7217 58.8238C98.7217 58.8238 94.5291 64.3785 93.7184 56.0813C93.7184 56.0813 93.7879 52.4789 94.4365 49.9224C94.7839 48.5279 96.5907 48.0631 97.5403 49.1787C98.1426 49.8527 98.629 50.945 98.7217 52.6649L99.046 51.2704C99.2776 50.271 100.436 49.7829 101.293 50.364C102.312 51.0612 103.447 52.386 103.818 54.989L104.258 53.7572C104.536 52.967 105.485 52.6416 106.18 53.1065C107.408 53.9199 108.89 55.663 108.45 59.1724C108.288 60.2648 107.964 62.0776 107.477 63.1002Z" fill="white"/>
<path d="M105.972 65.099C105.949 65.099 105.925 65.099 105.879 65.099C104.976 65.0525 104.211 64.3088 103.586 62.8446C102.961 63.2862 102.057 63.7045 101.061 63.4721C99.903 63.1932 99.0228 62.1008 98.3742 60.2183C97.633 60.8923 96.5443 61.5895 95.4556 61.2874C94.1122 60.9155 93.3246 59.2422 93.0235 56.1743V56.0813C93.0235 55.9419 93.093 52.3627 93.7647 49.7829C93.9964 48.8765 94.7144 48.1793 95.6178 47.9701C96.5212 47.7609 97.4477 48.0631 98.0499 48.7603C98.3974 49.1554 98.6753 49.6203 98.8838 50.1316C99.0923 49.8992 99.3702 49.7132 99.6714 49.597C100.343 49.3414 101.084 49.4111 101.663 49.8062C102.451 50.3175 103.377 51.2471 103.98 52.874C104.211 52.6184 104.512 52.4325 104.837 52.3162C105.416 52.1303 106.041 52.2 106.528 52.5487C107.709 53.3389 109.585 55.2447 109.099 59.2886C109.029 59.9394 108.705 62.1473 108.103 63.4488C107.755 64.1926 106.991 65.099 105.972 65.099ZM104.165 60.3113L104.559 61.4501C105.3 63.6115 105.902 63.7045 105.972 63.7045C106.25 63.7277 106.667 63.2397 106.852 62.8213C107.269 61.9382 107.57 60.2415 107.709 59.0795C108.103 55.9419 106.852 54.408 105.74 53.6642C105.532 53.5248 105.346 53.5713 105.254 53.5945C105.068 53.6642 104.929 53.7805 104.86 53.9664L103.447 57.8477L103.076 55.0587C102.822 53.1064 102.057 51.712 100.853 50.9218C100.644 50.7823 100.366 50.7591 100.135 50.852C99.8798 50.945 99.7177 51.1542 99.6482 51.4098L98.2121 57.685L97.9573 52.6881C97.8878 51.3401 97.5635 50.3175 96.9613 49.6203C96.6833 49.3181 96.2895 49.1787 95.8958 49.2716C95.4788 49.3646 95.1777 49.6667 95.0619 50.0851C94.4828 52.386 94.3902 55.6398 94.367 56.0349C94.6913 59.3351 95.5483 59.8464 95.8031 59.9162C96.5443 60.1253 97.6793 58.9865 98.1194 58.4055L98.9996 57.2434L99.3471 58.6611C99.8335 60.6831 100.552 61.9149 101.362 62.1241C102.15 62.3333 103.053 61.5431 103.331 61.2177L104.165 60.3113Z" fill="#1E1A15"/>
<path d="M173.957 59.7176L172.592 59.9799L174.679 70.9144L176.044 70.6521L173.957 59.7176Z" fill="#1E1A15"/>
</svg>
