<svg width="18" height="18" viewBox="0 0 18 18" fill="none" xmlns="http://www.w3.org/2000/svg">
<path d="M12.1818 8.34091L4.93182 1.09091H16C16.3788 1.09091 16.6515 1.25758 16.8182 1.59091C16.9848 1.92424 16.9545 2.24242 16.7273 2.54545L12.1818 8.34091ZM16.7045 18L11.4545 12.75V14.7273C11.4545 14.9848 11.3673 15.2009 11.1927 15.3755C11.0182 15.55 10.8024 15.637 10.5455 15.6364H8.72727C8.4697 15.6364 8.25364 15.5491 8.07909 15.3745C7.90455 15.2 7.81758 14.9842 7.81818 14.7273V9.11364L0 1.29545L1.27273 0L18 16.7273L16.7045 18Z" fill="black"/>
</svg>
